<?xml version="1.0" encoding="utf-8"?>
<!-- Generator: Adobe Illustrator 24.3.0, SVG Export Plug-In . SVG Version: 6.00 Build 0)  -->
<svg version="1.1" id="Layer_1" xmlns="http://www.w3.org/2000/svg" xmlns:xlink="http://www.w3.org/1999/xlink" x="0px" y="0px"
	 viewBox="0 0 666 1050.7" style="enable-background:new 0 0 666 1050.7;" xml:space="preserve">
<style type="text/css">
	.st0{display:none;}
	.st1{display:inline;}
	.st2{fill:#E8505B;}
	.st3{opacity:0.1;enable-background:new    ;}
	.st4{opacity:0.3;enable-background:new    ;}
	.st5{fill:#263238;}
	.st6{fill:#875339;}
	.st7{fill:#DFA887;}
	.st8{fill:#C3795D;}
	.st9{fill:url(#SVGID_1_);}
	.st10{fill:url(#SVGID_2_);}
	.st11{fill:#5F3316;}
	.st12{opacity:0.5;fill:#875339;enable-background:new    ;}
	.st13{fill:#FBF9ED;}
	.st14{fill:#2F1B1A;}
	.st15{fill:#5A3B3A;}
	.st16{fill:#CB5E67;}
	.st17{fill:#7F0000;}
	.st18{opacity:0.4;}
	.st19{opacity:0.3;}
	.st20{fill:#EEBD9D;}
	.st21{fill:#EB996E;}
	.st22{fill:#FFFFFF;}
	.st23{fill:#455A64;}
	.st24{display:inline;fill:#263238;}
	.st25{display:inline;fill:#0D1126;}
	.st26{display:inline;fill:#BD8A62;}
	.st27{display:inline;fill:#CF6958;}
	.st28{display:inline;fill:#EBDBDA;}
	.st29{display:inline;fill:#1C2035;}
	.st30{display:inline;fill:#3D3D3D;}
	.st31{display:inline;fill:#E2D2CC;}
	.st32{display:inline;fill:#2E2119;}
	.st33{display:inline;fill:#AF7649;}
	.st34{display:inline;fill:#9E3C4C;}
	.st35{display:inline;fill:#A15942;}
	.st36{display:inline;fill:#809094;}
	.st37{display:inline;fill:#CBC7CE;}
	.st38{display:inline;fill:#E2B27F;}
	.st39{display:inline;fill:#6B968A;}
	.st40{display:inline;fill:#B85952;}
	.st41{display:inline;fill:#ADACB5;}
	.st42{display:inline;fill:#AE8180;}
	.st43{display:inline;fill:#BB4945;}
	.st44{display:inline;fill:#331D14;}
	.st45{display:inline;fill:#3C2525;}
	.st46{display:inline;fill:none;stroke:#BD8A62;stroke-linecap:round;stroke-linejoin:round;stroke-miterlimit:10;}
	.st47{fill:#AF7649;}
	.st48{fill:#2D2019;}
	.st49{fill:#3D3D3D;}
	.st50{fill:none;stroke:#FFFFFF;stroke-width:3.5;stroke-linecap:round;stroke-linejoin:round;stroke-miterlimit:10;}
	.st51{fill:none;stroke:#FFFFFF;stroke-width:2;stroke-linecap:round;stroke-linejoin:round;stroke-miterlimit:10;}
	.st52{fill:none;stroke:#FFFFFF;stroke-width:2.5;stroke-linecap:round;stroke-linejoin:round;stroke-miterlimit:10;}
	.st53{fill:none;stroke:#FFFFFF;stroke-width:2.5;stroke-miterlimit:10;}
	.st54{fill:#E0AF7F;stroke:#FFFFFF;stroke-miterlimit:10;}
	.st55{fill:#FFFFFF;stroke:#FFFFFF;stroke-miterlimit:10;}
	.st56{fill:none;stroke:#FFFFFF;stroke-miterlimit:10;}
	.st57{fill:none;stroke:#FFFFFF;stroke-width:4;}
	.st58{fill:none;stroke:#FFFFFF;stroke-width:4;stroke-miterlimit:10;}
</style>
<g id="Layer_10" class="st0">
	<g class="st1">
		<g>
			<g>
				<path class="st2" d="M3175.8,332.7h149.4c0,0,0-125.4,130.3-127.6c67.7-1.2,102.8,43.2,117,77.1c16.6,39.4,11.6,84.4-10.6,121
					c-25.3,41.8-79.9,83.7-180.5,66l-0.9,332.7H3528V604.6c0,0,207.1-53.5,207.1-281.8c0-218.4-176.6-265.6-271.5-268.6
					c-52.8-1.7-72-4-137.3,5.3C3243.1,71.3,3174,168,3175.8,332.7z"/>
				<rect x="3379.9" y="871.2" class="st2" width="149.9" height="140"/>
				<rect x="3379.9" y="871.2" class="st3" width="149.9" height="140"/>
				<path class="st3" d="M3175.8,332.7h149.4c0,0,0-125.4,130.3-127.6c67.7-1.2,102.8,43.2,117,77.1c16.6,39.4,11.6,84.4-10.6,121
					c-25.3,41.8-79.9,83.7-180.5,66l-0.9,332.7H3528V604.6c0,0,207.1-53.5,207.1-281.8c0-218.4-176.6-265.6-271.5-268.6
					c-52.8-1.7-72-4-137.3,5.3C3243.1,71.3,3174,168,3175.8,332.7z"/>
			</g>
			<g>
				<path class="st2" d="M3113.9,332.7h149.4c0,0,0-125.4,130.3-127.6c67.7-1.2,102.8,43.2,117,77.1c16.6,39.4,11.6,84.4-10.6,121
					c-25.3,41.8-80.8,79.7-181.5,62v336.7h147.7V604.6c0,0,207.1-53.5,207.1-281.8c0-218.4-195.8-269.1-279.7-269.1
					C3329.5,53.7,3111.1,69.2,3113.9,332.7z"/>
				<path class="st4" d="M3113.9,332.7h149.4c0,0,0-125.4,130.3-127.6c67.7-1.2,102.8,43.2,117,77.1c16.6,39.4,11.6,84.4-10.6,121
					c-25.3,41.8-80.8,79.7-181.5,62v336.7h147.7V604.6c0,0,207.1-53.5,207.1-281.8c0-218.4-195.8-269.1-279.7-269.1
					C3329.5,53.7,3111.1,69.2,3113.9,332.7z"/>
				<rect x="3318.1" y="871.2" class="st2" width="149.9" height="140"/>
				<rect x="3318.1" y="871.2" class="st4" width="149.9" height="140"/>
			</g>
		</g>
		<g>
			<path class="st5" d="M3410.4,205.7c0,0.1-0.8,0-2.2-0.1c-1.5-0.1-3.6-0.5-6.4-0.5c-5.5-0.4-13.6-0.2-23.4,1
				c-9.8,1.2-21.4,3.7-33.8,7.9c-6.1,2.2-12.6,4.8-18.8,8.1c-6.3,3.2-12.6,7.1-18.4,11.9c-5.8,4.7-10.8,10.3-15.1,15.9
				c-4.3,5.7-8.1,11.4-11.3,17.1c-6.4,11.5-10.7,22.5-13.4,32c-2.8,9.5-3.9,17.5-4.5,23c-0.3,2.8-0.4,4.9-0.5,6.4s-0.1,2.2-0.2,2.2
				s-0.1-0.8-0.1-2.2c0-1.5,0-3.6,0.2-6.4c0.4-5.5,1.4-13.6,4.1-23.2c2.6-9.6,6.9-20.8,13.2-32.4c3.2-5.8,7-11.6,11.3-17.3
				s9.3-11.3,15.3-16.2c5.9-4.9,12.3-8.8,18.7-12.1c6.4-3.4,12.8-5.9,19-8.1c12.5-4.3,24.2-6.6,34.1-7.7c9.9-1.1,18-1.1,23.6-0.6
				c2.8,0.1,4.9,0.6,6.4,0.8C3409.7,205.5,3410.4,205.7,3410.4,205.7z"/>
		</g>
		<g>
			<path class="st5" d="M3635.5,179c0,0-0.2-0.2-0.5-0.6c-0.3-0.5-0.8-1.1-1.3-1.8c-1.2-1.7-2.8-4-4.9-7c-1.1-1.5-2.2-3.2-3.6-5
				c-1.4-1.7-3-3.6-4.7-5.7s-3.5-4.2-5.4-6.5s-4.2-4.4-6.5-6.9c-2.3-2.4-4.6-5-7.2-7.4c-2.7-2.4-5.5-4.9-8.4-7.6
				c-1.5-1.3-2.9-2.7-4.4-3.9c-1.6-1.2-3.2-2.5-4.8-3.8c-3.3-2.5-6.5-5.3-10.1-7.8c-14.2-10.3-30.8-20.1-48.9-28.9
				c-4.6-2.1-9.1-4.1-13.6-6.2c-4.6-1.8-9.1-3.5-13.5-5.2c-4.4-1.8-8.9-3.1-13.2-4.6c-4.4-1.4-8.6-2.9-12.9-3.9
				c-4.2-1.1-8.4-2.2-12.4-3.3s-8-1.7-11.8-2.5c-3.8-0.7-7.5-1.7-11.1-2.1c-3.6-0.5-7-1-10.3-1.5c-6.5-1.1-12.5-1.3-17.8-1.9
				c-2.6-0.2-5.1-0.5-7.3-0.6s-4.3-0.1-6.2-0.2c-3.6-0.1-6.5-0.2-8.5-0.3c-0.9,0-1.6-0.1-2.2-0.1c-0.5,0-0.8-0.1-0.8-0.1
				s0.3,0,0.8-0.1c0.6,0,1.3,0,2.2,0c2.1,0,4.9,0,8.5,0c1.9,0,3.9,0,6.2,0c2.3,0.1,4.7,0.3,7.3,0.5c5.2,0.5,11.3,0.6,17.8,1.7
				c3.3,0.5,6.7,0.9,10.3,1.4c3.6,0.4,7.3,1.3,11.1,2c3.8,0.8,7.8,1.4,11.9,2.5s8.2,2.1,12.4,3.2c4.3,1,8.5,2.6,12.9,3.9
				c4.4,1.4,8.9,2.7,13.3,4.6c4.5,1.7,9,3.5,13.6,5.3c4.5,2,9.1,4.1,13.7,6.2c18.3,8.8,34.9,18.8,49.1,29.1
				c3.6,2.6,6.8,5.4,10.1,7.9c1.6,1.3,3.2,2.6,4.8,3.8c1.6,1.3,3,2.7,4.4,4c2.9,2.6,5.7,5.2,8.3,7.6c2.6,2.5,4.9,5.1,7.2,7.5
				c2.2,2.4,4.5,4.7,6.4,7s3.6,4.5,5.3,6.6c1.6,2.1,3.2,4,4.6,5.7c1.3,1.8,2.4,3.6,3.5,5.1c2,3,3.6,5.4,4.7,7.1
				c0.5,0.8,0.9,1.4,1.2,1.9C3635.4,178.8,3635.5,179,3635.5,179z"/>
		</g>
		<g>
			<path class="st5" d="M3619.9,499.7c0,0-0.4,0.6-1.1,1.5c-0.9,1.1-2,2.5-3.4,4.3c-1.5,1.9-3.4,4.1-5.6,6.6
				c-2.3,2.5-4.8,5.5-7.8,8.5c-2.9,3.1-6.2,6.5-9.9,9.9c-3.6,3.5-7.6,7.1-11.8,10.8c-8.6,7.4-18.3,15.1-29,22.5
				c-10.8,7.4-21.4,13.7-31.4,19.1c-5,2.6-9.8,5.1-14.3,7.2c-4.5,2.2-8.8,4-12.8,5.7c-3.9,1.7-7.6,3-10.7,4.2
				c-3.2,1.2-5.9,2.2-8.2,2.9c-2.2,0.7-3.9,1.3-5.2,1.7c-1.2,0.4-1.8,0.5-1.9,0.5c0,0,0.6-0.3,1.8-0.8c1.3-0.5,3-1.1,5.1-1.9
				c2.2-0.8,5-1.8,8.1-3.1s6.7-2.6,10.6-4.4c3.9-1.7,8.2-3.6,12.7-5.8c4.5-2.1,9.2-4.7,14.2-7.3c9.9-5.4,20.5-11.8,31.2-19.1
				c10.7-7.4,20.4-15.1,29-22.4c4.2-3.7,8.3-7.2,11.9-10.7c3.7-3.4,7-6.7,9.9-9.8c3-3,5.6-5.9,7.9-8.3c2.3-2.5,4.2-4.6,5.8-6.5
				c1.5-1.7,2.7-3.1,3.6-4.1C3619.4,500.1,3619.9,499.7,3619.9,499.7z"/>
		</g>
		<g>
			<path class="st5" d="M3463.5,790.1c-0.4,0-0.7-41.5-0.7-92.8c0-51.2,0.3-92.8,0.7-92.8s0.7,41.5,0.7,92.8
				S3463.9,790.1,3463.5,790.1z"/>
		</g>
		<g>
			<path class="st5" d="M3469.2,1001.7c-0.4,0-0.7-29.2-0.7-65.1c0-36,0.3-65.1,0.7-65.1s0.7,29.1,0.7,65.1
				C3469.9,972.5,3469.6,1001.7,3469.2,1001.7z"/>
		</g>
	</g>
	<g class="st1">
		<g>
			<path class="st6" d="M3951.9,334.9c-1.9-53.5-8.5-101.3-16.9-142.5c-17.2-83.8-33.3-98.7-42.4-105.3
				c-35.2-25.7-93.4-21.9-125.1,6.7c-12.5,11.3-19.5,25.2-34.4,98.6c-9.6,47.2-16,87.2-20.3,116.8c10.6-4.8,22.6-11.2,35.3-19.7
				c16.2-10.9,29.1-22.3,38.8-32.3c25.6,2.7,51.2,5.4,76.8,8.1C3893.2,288.4,3922.6,311.7,3951.9,334.9z"/>
			<g>
				<path class="st7" d="M3754.6,180.6c8.2-11.1,26.9,7,26.9,7s11.6,13.5-1.9,29.9c-6.7,8.2-14.5,2-19.7-7.7
					C3754.6,200,3748.7,188.5,3754.6,180.6z"/>
				<path class="st8" d="M3766.4,210.8c1.8,1.8,4.1,3.3,6.9,2.8c1.1-0.2,2.2-1.9,1.9-2.9c-0.8-2.4-8.5-6.7-6.6-13.5
					s-6.7-13.3-9.4-9.6C3757.1,190.6,3759.6,203.9,3766.4,210.8z"/>
			</g>
			<g>
				<path class="st7" d="M3913.5,180.6c-8.2-11.1-26.9,7-26.9,7s-11.6,13.5,1.9,29.9c6.7,8.2,14.5,2,19.7-7.7
					C3913.5,200,3919.4,188.5,3913.5,180.6z"/>
				<path class="st8" d="M3901.7,210.8c-1.8,1.8-4.1,3.3-6.9,2.8c-1.1-0.2-2.2-1.9-1.9-2.9c0.8-2.4,8.5-6.7,6.6-13.5
					s6.7-13.3,9.4-9.6C3911,190.6,3908.5,203.9,3901.7,210.8z"/>
			</g>
			<path class="st7" d="M3901.5,124.7c-1.8-10.1-8.7-18.6-17.4-25.6c-14.6-11.7-32.2-23.8-49.8-23.8s-35.1,12.1-49.8,23.8
				c-8.7,7-15.6,15.5-17.4,25.6c0,0-4.3,73.7,15.5,104.1c15.3,23.6,34.6,42,51.7,42s36.4-18.4,51.7-42
				C3905.8,198.4,3901.5,124.7,3901.5,124.7z"/>
			
				<radialGradient id="SVGID_1_" cx="3423.7888" cy="-1697.1959" r="12.7062" gradientTransform="matrix(1.1695 0 0 1 -133.2657 1899.532)" gradientUnits="userSpaceOnUse">
				<stop  offset="0" style="stop-color:#DB9586"/>
				<stop  offset="0.6374" style="stop-color:#DEA187"/>
				<stop  offset="0.9198" style="stop-color:#DFA887"/>
			</radialGradient>
			<ellipse class="st9" cx="3870.9" cy="202.3" rx="15.9" ry="11.7"/>
			
				<radialGradient id="SVGID_2_" cx="-1894.5002" cy="-1697.1959" r="12.7062" gradientTransform="matrix(-1.1695 0 0 1 1581.7273 1899.532)" gradientUnits="userSpaceOnUse">
				<stop  offset="0" style="stop-color:#DB9586"/>
				<stop  offset="0.6374" style="stop-color:#DEA187"/>
				<stop  offset="0.9198" style="stop-color:#DFA887"/>
			</radialGradient>
			<ellipse class="st10" cx="3797.3" cy="202.3" rx="15.9" ry="11.7"/>
			<path class="st11" d="M3815.4,168.2c2.5-0.3,4.7-1,5.6-3.4c0.8-2.1,1.7-5.4,1-6.2c-2.1-2.4-30.3-1.5-31.2-0.9
				s-12.4,10.7-11.7,12.4s13.9-5.4,15.4-5.4C3795.4,164.6,3808.8,169,3815.4,168.2z"/>
			<path class="st11" d="M3855.9,165.9c-2.5-0.4-4.7-1.1-5.5-3.5c-0.7-2.1-1.6-5.4-0.9-6.2c2.1-2.3,29.4,0.2,30.3,0.8
				c0.9,0.6,12.2,10.9,11.5,12.6s-13.8-5.6-15.2-5.7C3875,163.9,3862.5,166.8,3855.9,165.9z"/>
			<path class="st6" d="M3834.6,74.8C3834.6,74.8,3834.6,74.9,3834.6,74.8C3834.6,74.9,3834.6,74.8,3834.6,74.8
				c-105.9,0-81.8,72.7-73.5,96.7c2.5,7.3,6.8,15,10.1,21.2c3.8,7,2.6-1.2,2.6-1.2c-5.2-39.5,7.7-47.8,7.7-47.8
				c11.3-28.6,53.1-52.5,53.1-52.5s27.2,25.4,54.9,32.4c0,0,11.1,28.3,5.9,67.8c0,0-1.2,8.2,2.6,1.2c3.3-6.1,7.6-13.9,10.1-21.2
				C3916.3,147.6,3940.5,74.8,3834.6,74.8z"/>
			<path class="st12" d="M3913.8,113.3c-2.6-8.2-7.4-16-15.5-22.4C3904.5,97.6,3909.8,105.2,3913.8,113.3z"/>
			<path class="st6" d="M3892.1,112.6c-5.6-2.9-14.9-0.2-25.5-7.4c-3.1-2.1-5.3-4.3-6.6-5.8c6.2,7.9,8.8,12.3,7.8,13.4
				c-1.6,1.7-12.7-5.6-33.1-21.9c-7.2-0.7-14.4-1.3-21.7-2c-2.5,10.3-7.9,19.3-16.1,27.7c-3.4,3.5-7,6.6-10.8,9.2
				c-6.7,4.7-6.9,12.5-8,20.7c0,0.1-0.7,1.9-0.8,2c8.9-15.6,17.8-18.9,22.2-19.8c3.9-0.8,10.6-1.1,24-1.5c2.5-0.1,4.6-0.1,6-0.2
				c3.8-3.7,6.8-4.2,8.7-4.1c2.2,0.1,3.3,1.2,8.2,3.6c3.7,1.8,5.6,2.5,7.3,3.2c8.3,3.7,17.3,13,22,17.4c4.9,4.6,12.1,10.7,22.1,16.9
				C3903.2,127.6,3898.4,115.8,3892.1,112.6z"/>
			<g>
				<path class="st13" d="M3802.3,191.8c2-0.2,9.3-0.9,10.1-1.7c0.4-0.4,0.8-0.6,1.1-0.9c1.8-2.2,2.8-5,2.8-8c0-1.3-0.3-2.6-0.6-3.8
					c-9.8-5.5-18.6-4.3-27.3,0c-0.4,1.2-0.6,2.5-0.6,3.8c0,2.8,0.9,5.4,2.5,7.6C3793.8,191.1,3797.9,192.3,3802.3,191.8z"/>
				<path class="st14" d="M3796.9,190.2c2.6,0.5,4.6,0.8,7.2,0.8c4.3,0,8.4-1.1,10.9-4.2c-1.4,4.4-2.3,7-15.6,6.4
					c-5.9-0.3-8.4-1.9-10.6-6.8C3791.1,188.5,3793.9,189.6,3796.9,190.2z"/>
				<g>
					<g>
						<path class="st15" d="M3799.3,182c0,4.1,3.4,7.4,7.5,7.4s7.5-3.3,7.5-7.4s-3.4-7.4-7.5-7.4
							C3802.6,174.5,3799.3,177.9,3799.3,182z"/>
						<path class="st14" d="M3802.2,182c0,2.5,2,4.5,4.6,4.5s4.6-2,4.6-4.5s-2-4.5-4.6-4.5S3802.2,179.5,3802.2,182z"/>
					</g>
					<path class="st13" d="M3811.6,180.2c0,0.8-0.7,1.5-1.5,1.5s-1.5-0.7-1.5-1.5s0.7-1.5,1.5-1.5
						C3810.9,178.7,3811.6,179.4,3811.6,180.2z"/>
				</g>
				<path class="st14" d="M3811.4,179.2c-3.3-0.9-6.8-1.7-10.2-1.4c-5.3,0.4-9.3,1.9-13.5,4.9c-3.9-1.6-7.4-4.7-7.1-7.9
					c0,0,5.3,1.8,9.6-0.3c2.6-1.2,6-2.9,11-3.2c10.7-0.7,14.3,3.9,15,10.7C3814.9,180.7,3813.3,179.7,3811.4,179.2z"/>
			</g>
			<g>
				<path class="st13" d="M3866.1,191.8c-2-0.2-9.3-0.9-10.1-1.7c-0.4-0.4-0.8-0.6-1.1-0.9c-1.8-2.2-2.8-5-2.8-8
					c0-1.3,0.3-2.6,0.6-3.8c9.8-5.5,18.6-4.3,27.3,0c0.4,1.2,0.6,2.5,0.6,3.8c0,2.8-0.9,5.4-2.5,7.6
					C3874.5,191.1,3870.4,192.3,3866.1,191.8z"/>
				<path class="st14" d="M3871.4,190.2c-2.6,0.5-4.6,0.8-7.2,0.8c-4.3,0-8.4-1.1-10.9-4.2c1.4,4.4,2.3,7,15.6,6.4
					c5.9-0.3,8.4-1.9,10.6-6.8C3877.3,188.5,3874.4,189.6,3871.4,190.2z"/>
				<g>
					<g>
						<path class="st15" d="M3864,182c0,4.1,3.4,7.4,7.5,7.4s7.5-3.3,7.5-7.4s-3.4-7.4-7.5-7.4C3867.4,174.5,3864,177.9,3864,182z"
							/>
						<path class="st14" d="M3867,182c0,2.5,2,4.5,4.6,4.5s4.6-2,4.6-4.5s-2-4.5-4.6-4.5S3867,179.5,3867,182z"/>
					</g>
					<path class="st13" d="M3876.3,180.2c0,0.8-0.7,1.5-1.5,1.5s-1.5-0.7-1.5-1.5s0.7-1.5,1.5-1.5
						C3875.7,178.7,3876.3,179.4,3876.3,180.2z"/>
				</g>
				<path class="st14" d="M3856.9,179.2c3.3-0.9,6.8-1.7,10.2-1.4c5.3,0.4,9.3,1.9,13.5,4.9c3.9-1.6,7.4-4.7,7.1-7.9
					c0,0-5.3,1.8-9.6-0.3c-2.6-1.2-6-2.9-11-3.2c-10.7-0.7-14.3,3.9-15,10.7C3853.5,180.7,3855.1,179.7,3856.9,179.2z"/>
			</g>
			<g>
				<path class="st16" d="M3843.3,231.2c-5.5,1.4-12,3.1-12,3.1s-17-5.2-17.7-5.8c-1.2-1-4.1-1.8-5.5-2.3c-0.7-0.3-1.2-0.5-1.4,0.4
					c-0.4,1.6,3.4,1.2,6.3,5.3c1.2,1.7,8.8,12.5,18.3,12.5c10.4,0,16.4-10.2,18.2-12.4c2.1-2.6,6.1-3.5,6.4-4.9
					c0.4-1.7-0.9-1.2-2.3-0.3C3850.4,228.8,3846.9,230.2,3843.3,231.2z"/>
				<path class="st17" d="M3828.2,234.5c5.2,0.9,9.9-0.8,13.6-4.1c-0.8-0.2-1.6-0.4-2.5-0.6c-4.2-0.7-12.6-1.2-18.3,0.5
					C3823.2,232.4,3825.6,234.1,3828.2,234.5z"/>
				<path class="st16" d="M3842.6,224.4c-3.8-3.9-8.6-3.2-11.3,3c-2.7-6.2-6.3-7-12-3.4c-6.9,4.4-11.9,2.8-11.9,2.8
					c11.1,7.1,23.9,5.7,23.9,5.7s15.1,1.2,24.6-5.4C3855.9,227.1,3847,229,3842.6,224.4z"/>
			</g>
		</g>
		<g>
			<g>
				<path class="st6" d="M3823.7,207c1.4,2.1,3,4.3,5.1,5.8c1.1,0.8,2.5,1.2,3.9,0.9c1.7-0.3,3.3-1.4,4.7-2.4c1.8-1.2,3.4-2.6,5-4.1
					c0.9-0.9-0.5-2.3-1.4-1.4c-1.6,1.5-3.2,2.9-5,4.1c-0.9,0.6-1.7,1.1-2.7,1.5c-0.6,0.3-1.3,0.5-2,0.3c-1.4-0.3-2.6-1.5-3.5-2.6
					c-0.9-1-1.6-2.1-2.4-3.2C3824.7,204.9,3823,205.9,3823.7,207L3823.7,207z"/>
			</g>
		</g>
	</g>
	<g class="st1">
		<g>
			<path class="st2" d="M3692.9,455.8c-4.2,6.7,9.2,13.1,17,15.9s16.3,3.1,24.6,3.2c11,0.2,22.5,0,32.4-4.5c8.8-4,15.6-11,20.6-18.8
				s8.2-16.5,11.5-25C3799,426.6,3711.5,426.1,3692.9,455.8z"/>
			<g class="st18">
				<path d="M3692.9,455.8c-4.2,6.7,9.2,13.1,17,15.9s16.3,3.1,24.6,3.2c11,0.2,22.5,0,32.4-4.5c8.8-4,15.6-11,20.6-18.8
					s8.2-16.5,11.5-25C3799,426.6,3711.5,426.1,3692.9,455.8z"/>
			</g>
			<g>
				<path class="st2" d="M3940.4,450.2c13.6,10.4,30.7,16.7,48.2,17.6c8.4,0.5,17.3-0.5,23.9-5.3c3-2.2,5.3-5.2,8.4-7.3
					c2.1-1.5,4.5-2.5,6.5-4.1s3.6-3.9,3.1-6.3c-0.4-2.5-2.3-6.5-4.6-7.9c-9.6-6-21.6-6.5-33.1-7.1c-11.5-0.5-23,1.2-34.1,3.9
					c-9.1,2.2-18.7,5.5-23.7,12.9"/>
				<g class="st18">
					<path d="M4030.5,444.8c-0.4-2.5-3.8-6-6.1-7.3c-9.6-6-20.1-7.1-31.6-7.7c-11.5-0.5-23,1.2-34.1,3.9
						c-9.1,2.2-18.7,5.5-23.7,12.9l5.5,3.5c13.6,10.4,30.7,16.7,48.2,17.6c8.4,0.5,17.3-0.5,23.9-5.3c3-2.2,5.3-5.2,8.4-7.3
						c2.1-1.5,4.5-2.5,6.5-4.1S4031,447.3,4030.5,444.8z"/>
				</g>
			</g>
			<path class="st2" d="M3762.2,562c12.4,4,84.6,9.7,183.6,14.5c1.6,0.1,2.9-1.2,2.5-2.7l-17.4-64c0,0,5.3-31,12.2-68.4
				c10.5-56.6,24.1-127.9,24.2-127.6c-10.4-33.6-84.2-44.1-84.2-44.1c-28.7-1-57.4-2.1-86.1-3.1c-8.8,2.1-17.6,4.1-26.4,6.2
				c-5.5,1.9-10.7,4.3-15.8,7c-16.7,8.9-57,29.3-65.7,54.4c-20.3,58.1,3,125.9,3,125.9l18.6-11.7c4.9-3,9.4-5.5,14.7-7.8l29.7,91.2
				c-0.9,0.5-7.3,3.8-8.5,10.9c-0.8,4.5,1,8.1,1.5,9.2C3748,551.7,3751.6,558.6,3762.2,562z"/>
			<g class="st19">
				<path d="M3847.9,462.6c7.8-28.8,6.7-59,5.6-88.7c-11.8,23.5-13.2,50.7-25.6,73.9c-1.3,2.5-2.8,5-3.4,7.7
					c-0.6,2.7-0.1,5.9,1.9,7.9c2.8,2.7,7.2,1.6,11.2,1.5C3841.8,464.7,3844.1,463.5,3847.9,462.6"/>
			</g>
			<g class="st18">
				<path d="M3775.8,525.5c14.5,5.8,30.7-2.1,46.4-2.6c10.4-0.3,20.6,2.5,30.7,4.8c20.5,4.5,41.6,6.4,62.6,5.6
					c3.2-0.1,6.5-0.3,9.4-1.6s5.4-5.2,5.4-8.2c-34.5-5.6-69.1-9.9-103.6-15.5c-8.6-1.4-17.6-2.8-26.1-1
					c-10.7,2.3-19.3,9.4-27.2,16.5"/>
			</g>
			<path class="st2" d="M4026,433.2c-12.9-32.4-60-123-60-123l-44.2,45.1l3.3,94.5c0,0,23.1-21,83.6-17.5
				c14.1,0.8,21.8,12.5,21.8,12.5L4026,433.2z"/>
			<g>
				<path class="st5" d="M3781.1,400.2c-0.5,0.1-3-9.3-5.5-21s-4.2-21.2-3.6-21.3s3,9.3,5.5,21
					C3780,390.6,3781.7,400.1,3781.1,400.2z"/>
			</g>
			<g>
				<path class="st5" d="M3919.1,348.7c0.1-0.1,1.4,1.1,3.6,3.2c2.2,2.2,5.2,5.5,8.5,9.9c6.6,8.7,14.5,22.2,17.1,38.5
					c1.3,8.1,1.1,16.1-0.4,23.1c-1.4,7-3.3,13-4.6,18.2c-1.3,5.1-2.2,9.4-2.7,12.3s-0.7,4.6-0.8,4.5c-0.1,0-0.2-1.7,0.1-4.6
					s0.9-7.3,2.1-12.5c1.1-5.2,2.8-11.4,4.1-18.2c1.3-6.8,1.5-14.5,0.2-22.5c-2.5-16-10.1-29.3-16.3-38.1
					C3923.9,353.7,3918.8,349,3919.1,348.7z"/>
			</g>
			<g>
				<path class="st5" d="M3867.3,561.5c0,0.1-1.4,0.4-4.1,0.8c-1.3,0.2-2.9,0.5-4.9,0.5c-1.9,0.1-4.1,0.4-6.5,0.3
					c-4.8,0.1-10.6-0.3-16.9-1.2c-6.3-1-13.1-2.7-20-5.1c-6.9-2.5-13.1-5.6-18.5-8.8c-5.3-3.3-9.9-6.6-13.4-9.8
					c-1.8-1.5-3.3-3-4.6-4.3s-2.4-2.5-3.2-3.5c-1.7-2-2.5-3.1-2.4-3.2c0.3-0.2,4,4.2,11.1,10c3.6,3,8.1,6.1,13.4,9.3
					c5.4,3.1,11.5,6.1,18.3,8.6c6.8,2.4,13.5,4.1,19.6,5.2c6.2,1,11.8,1.5,16.6,1.6C3861.4,562.1,3867.2,561.1,3867.3,561.5z"/>
			</g>
			<g>
				<path class="st5" d="M3925.3,545.7c0.2,0,0.8,1.9,1.1,5.1c0.2,3.2,0,7.8-1.8,12.4c-1.8,4.7-5.1,8.3-7.9,10.1
					c-2.8,1.9-4.9,2.4-5,2.2c-0.1-0.3,1.7-1.2,4.2-3.2c2.4-2,5.3-5.4,7-9.8C3926.2,553.7,3924.6,545.7,3925.3,545.7z"/>
			</g>
			<g>
				<path class="st5" d="M3914.5,557.1c0.5-0.1,1.1,5-1.6,10.5c-2.7,5.5-7.3,8.3-7.5,7.9c-0.4-0.4,3.3-3.6,5.8-8.7
					C3913.7,561.8,3914,557.1,3914.5,557.1z"/>
			</g>
			<g>
				<path class="st5" d="M3889.1,442.1c0.4,0.4-3.3,3.8-7.1,8.3c-3.9,4.6-6.5,8.7-7,8.4c-0.5-0.2,1.5-4.8,5.5-9.5
					C3884.5,444.5,3888.8,441.7,3889.1,442.1z"/>
			</g>
			<g>
				<path class="st5" d="M3768.5,350.6c-0.2,0.2-3-2.2-7.8-5.6s-11.8-7.7-20.2-11.2s-16.4-5.7-22.3-6.8c-5.9-1.2-9.6-1.5-9.6-1.8
					c0-0.2,3.8-0.3,9.9,0.6c6,0.8,14.3,2.8,22.9,6.4c8.5,3.6,15.6,8.2,20.3,11.9C3766.3,347.7,3768.7,350.5,3768.5,350.6z"/>
			</g>
			<g>
				<path class="st5" d="M3966.1,309.1c0.3,0.5-10,5.5-19.7,15c-9.8,9.4-14.8,19.2-15.3,18.9c-0.2-0.1,0.8-2.6,3-6.5
					c2.2-3.8,5.9-8.9,10.9-13.7c5-4.8,10.2-8.4,14.3-10.7C3963.2,309.9,3966,308.9,3966.1,309.1z"/>
			</g>
			<g>
				<path class="st5" d="M3892,275.8c0.1,0,0.3,0.5,0.7,1.6c0.5,1.1,0.9,2.8,1.4,4.9c0.9,4.3,1.1,10.9-1.3,18.6
					c-2.4,7.5-7.6,16.2-16.6,22.6c-8.9,6.5-21.6,9.9-34.7,9c-13.1-1-25-5.9-33.5-12.9c-8.6-6.9-14.1-15.2-17.4-22.5
					c-3.3-7.3-4.6-13.7-5.1-18.1c-0.2-2.2-0.4-3.9-0.3-5.1c0-1.2,0-1.8,0.1-1.8c0.2,0,0.3,2.4,1,6.7c0.7,4.3,2.2,10.5,5.6,17.7
					c3.4,7.1,8.9,15.1,17.3,21.8c8.3,6.7,19.9,11.5,32.5,12.4s24.8-2.3,33.5-8.5c8.7-6.1,13.9-14.4,16.4-21.7
					c2.5-7.4,2.5-13.8,1.9-18.1C3892.8,278.1,3891.8,275.8,3892,275.8z"/>
			</g>
			<g class="st19">
				<path d="M3893.5,448.5c0.1-1.7-0.1-3.8-1.6-4.7c-1-0.6-2.3-0.6-3.3-0.2s-2,1.1-2.8,1.9c-4.8,4.2-8.2,8.4-10.8,14l18.2-0.2
					C3893.2,455.6,3893.4,452,3893.5,448.5z"/>
			</g>
			<g class="st19">
				<path d="M3955.8,417.1c-0.7-9.7-5.4-18.9-11.4-26.9c6.2,24.3,2.7,37.5-2.8,53.4l1.1-2.2C3948.5,432.2,3956.6,426.8,3955.8,417.1
					z"/>
			</g>
		</g>
		<g>
			<path class="st20" d="M3769.8,500c0,0,102.3,15.8,163.1,22.7c47.1,5.3,69.6-2.6,82.6-26.3c10.9-19.9-0.4-61.4-0.4-61.4
				c-31.9-3.2-52.1-1.8-73.8,3.9l2.8,18.8l-167.8-6L3769.8,500z"/>
			<g>
				<path class="st21" d="M3944.4,470.4c-0.5,0.3-4.3-7.4-12.9-13.5c-8.5-6.3-17.5-7.9-17.3-8.4c0-0.2,2.3-0.1,5.8,0.9
					s8.2,2.9,12.6,6.2c4.4,3.2,7.6,7,9.5,9.9C3944,468.3,3944.6,470.3,3944.4,470.4z"/>
			</g>
			<g>
				<path class="st20" d="M3735.7,418.5L3735.7,418.5c0,0-28.7,4.4-50.3,15.8l18.4,56.8c6.2,18.7,28.1,29.1,46.7,20.9
					c28.8-12.8,41.4-54.9,41.4-54.9l38.7-120.1l-48.6-32.6L3735.7,418.5"/>
				<g>
					<path class="st20" d="M3781.9,304.4l4.7-40L3778,223c-0.5-2.3-0.6-5.1,1.5-6.4c2.2-1.3,5.2-1,6.8,0.6
						c2.9,3.1,15.3,39.8,15.3,39.8s23.2-10.9,27.2-11.3s8.3,11.1,8.5,12s-0.5,7.5-0.5,7.5s13.8,1.3,14.9,3.1
						c1.1,1.8,0.9,10.9,0.9,10.9s5.7,2.1,6.4,6.3s2.1,11-0.8,12.3s-8.9,3.9-8.9,3.9s-3.7,20.7-4.5,22.5
						c-0.7,1.9-14.5,12.7-14.5,12.7L3781.9,304.4z"/>
					<g>
						<path class="st21" d="M3720.9,510.9c0.1-0.1,1.3,0.8,4.1,1.9c2.8,1.1,7.2,2.2,13,1.8c5.7-0.3,12.8-2.2,19.4-6.8
							c6.5-4.7,13.2-11.1,18.9-19.3c2.9-4.1,5.5-8.7,7.8-13.6s4-10.4,5.8-16c3.7-11.3,7.6-23.4,11.8-36.3
							c8.4-25.8,17.8-54.7,27.9-85.8l0.1-0.2l0.2-0.2c2.7-2.1,5.4-4.3,8.1-6.6c1.3-1.1,2.7-2.3,4-3.5c0.6-0.6,1.3-1.2,1.8-1.8
							c0.5-0.4,0.5-1.2,0.8-2.1c1.4-6.8,2.7-13.7,4-20.8l0.1-0.5l0.4-0.2c2.4-1,4.8-2.1,7.3-3.2c0.6-0.3,1.4-0.6,1.7-0.8
							c0.3-0.2,0.6-0.6,0.7-1.1c0.3-1,0.3-2.3,0.3-3.5c-0.2-2.4-0.6-5.2-1.1-7.5c-0.8-2.1-3.2-3.8-5.6-4.8l-0.6-0.3v-0.6
							c0-2,0-4-0.1-6c-0.1-1-0.1-2-0.3-3c-0.1-0.5-0.2-1-0.3-1.3c-0.1-0.2-0.1-0.1-0.2-0.2c-0.2-0.1-0.3-0.2-0.6-0.3
							c-4-1.3-8.9-1.8-13.4-2.3l-1-0.1l0.1-0.9c0.2-2.1,0.5-4.4,0.5-6.6c0.1-0.6-0.4-1.5-0.7-2.3c-0.3-0.9-0.7-1.7-1.1-2.5
							c-0.8-1.6-1.7-3.3-2.7-4.7c-0.5-0.7-1.1-1.4-1.8-1.8c-0.7-0.5-1-0.6-1.9-0.3c-1.8,0.4-3.6,1.2-5.4,1.9c-7.1,2.9-14,6-20.8,9.2
							l-1,0.5l-0.4-1c-2.9-8.3-5.9-16.5-8.7-24.6c-1.4-4-2.9-8-4.3-12c-0.5-2-1.9-3.2-3.8-3.8c-1.9-0.6-3.9-0.2-4.9,1.3
							c-0.5,0.7-0.8,1.6-0.7,2.4c0.1,0.8,0.4,1.9,0.6,2.9c0.4,2,0.9,4,1.3,6c0.9,4,1.7,7.9,2.5,11.8c1.7,7.8,3.3,15.4,4.9,22.9v0.1
							v0.1c-1.7,13.9-3.3,27.3-4.8,40v0.1v0.1c-16.7,40.9-30.6,74.9-40.3,98.7c-4.9,11.8-8.7,21.1-11.4,27.5c-1.3,3.1-2.3,5.5-3,7.2
							c-0.7,1.6-1.1,2.4-1.1,2.4s0.3-0.9,0.9-2.5c0.7-1.7,1.6-4.1,2.8-7.3c2.6-6.4,6.2-15.8,10.9-27.6c9.6-23.9,23.2-57.9,39.7-98.9
							l-0.1,0.2c1.5-12.7,3-26.1,4.6-40v0.2c-1.6-7.5-3.3-15.1-5-22.9c-0.8-3.9-1.7-7.8-2.6-11.8c-0.4-2-0.9-4-1.3-6
							c-0.2-1.1-0.5-1.9-0.6-3.1c-0.1-1.2,0.3-2.4,1-3.4s1.8-1.8,3.1-2.1s2.6-0.2,3.8,0.1c1.2,0.4,2.4,0.9,3.3,1.8
							c0.9,0.8,1.5,2.1,1.8,3.1c1.4,4,2.9,8,4.3,12c2.9,8.1,5.8,16.3,8.8,24.5l-1.4-0.5c6.8-3.2,13.8-6.3,20.9-9.2
							c1.8-0.7,3.6-1.4,5.6-1.9c0.6-0.1,1.1-0.2,1.9-0.1c0.7,0.1,1.3,0.4,1.7,0.8c0.9,0.7,1.6,1.4,2.2,2.2c1.2,1.6,2.1,3.3,2.9,5
							c0.4,0.9,0.8,1.7,1.1,2.6s0.9,1.7,0.8,3c-0.1,2.4-0.3,4.7-0.5,6.8l-0.9-1c4.7,0.6,9.3,0.9,14,2.5c0.3,0.1,0.6,0.3,0.9,0.4
							c0.3,0.1,0.8,0.7,0.9,1c0.3,0.7,0.4,1.2,0.5,1.8c0.2,1.1,0.2,2.1,0.3,3.2c0.1,2.1,0.1,4.1,0.1,6.2l-0.6-0.9
							c2.8,1.2,5.5,2.9,6.7,5.9c0.7,2.9,1,5.3,1.2,8c0.1,1.3,0.1,2.7-0.4,4.1c-0.2,0.7-0.7,1.5-1.5,2s-1.3,0.6-1.9,0.9
							c-2.5,1.1-4.9,2.1-7.3,3.2l0.5-0.6c-1.3,7.1-2.6,14-4,20.9l-0.3,1.3c-0.1,0.4-0.5,1.1-0.8,1.4c-0.6,0.8-1.3,1.3-2,2
							c-1.3,1.2-2.7,2.4-4,3.5c-2.7,2.3-5.4,4.5-8.1,6.6l0.3-0.4c-10.2,31.1-19.7,59.9-28.2,85.7c-4.2,12.9-8.3,25-12,36.3
							c-1.9,5.6-3.6,11.1-6,16.1c-2.3,5-5,9.6-8,13.7c-5.9,8.3-12.7,14.7-19.3,19.4c-6.8,4.7-14.1,6.4-19.9,6.7
							c-5.9,0.2-10.4-1-13.1-2.1c-1.4-0.6-2.4-1.1-3.1-1.5C3721.2,511.1,3720.9,510.9,3720.9,510.9z"/>
					</g>
					<g>
						<path class="st21" d="M3836.9,265.2c0,0.2-1.3,0.3-3.2,0.2c-1.9,0-4.6-0.1-7.4,0.3c-2.8,0.5-5.1,1.6-6.5,2.7s-2.1,2-2.4,1.9
							c-0.2-0.1,0-1.3,1.4-2.8c1.3-1.5,3.9-3,7.1-3.5c3.1-0.5,6-0.2,7.9,0.2C3835.8,264.5,3837,264.9,3836.9,265.2z"/>
					</g>
					<g>
						<path class="st21" d="M3826.1,264.8c-0.5-0.2-0.4-1.3,0.1-2.4s1.4-1.8,1.8-1.6c0.5,0.2,0.4,1.3-0.1,2.4
							C3827.4,264.3,3826.6,265,3826.1,264.8z"/>
					</g>
					<g>
						<path class="st21" d="M3853.4,279.1c0,0.5-5,0.7-11,0.7c-3,0-5.3,0.9-6.3,2.3c-1.1,1.3-0.8,2.5-1.1,2.6
							c-0.2,0.1-1.1-1.2-0.1-3.2c0.5-0.9,1.4-1.9,2.8-2.5c1.4-0.6,2.9-0.8,4.5-0.9C3848.4,278,3853.4,278.6,3853.4,279.1z"/>
					</g>
					<g>
						<path class="st21" d="M3850.1,291.1c0.5,0.1,0.7,2.6,0.3,5.7s-1.1,5.5-1.6,5.5s-0.7-2.6-0.3-5.7
							C3848.8,293.5,3849.6,291.1,3850.1,291.1z"/>
					</g>
				</g>
			</g>
		</g>
		<g>
			<path class="st22" d="M3870.1,380l4.1-10.3c0.8-2.1,3.8-2.5,5.4-0.9l4.2,4.4l3.4-9.7c0.9-2.6,4.9-2.6,6-0.1l5.5,12.1L3870.1,380z
				"/>
			<g>
				<path class="st22" d="M3898.5,380c0.1,0.5-6.1,1.8-13.8,3s-14,1.7-14.1,1.2s6.1-1.8,13.8-3
					C3892.1,380.1,3898.4,379.5,3898.5,380z"/>
			</g>
		</g>
		<g>
			<g>
				<g>
					<g>
						<g>
							<g>
								<path class="st2" d="M3853.6,979.7l-0.1,4c6.2,0.7,38.8,4.9,52.8,30.1c1.9,3.4,3.7,7.6,4.9,12.7
									c-50.1-1.8-100.3-3.7-150.4-5.6l4.1-45.1C3792.3,986.1,3821.3,988,3853.6,979.7z"/>
							</g>
						</g>
						<g>
							<g>
								<g>
									<path class="st22" d="M3783.2,990.9c-3.6,0.6-6.2,3.5-5.5,6.2s4.8,4.7,8.4,4.1s6.9-3.9,5.8-6.5s-6.1-4.8-9.4-3.6"/>
								</g>
							</g>
						</g>
						<g>
							<g>
								<path class="st5" d="M3760.7,1021l1-10.8c23.7,2.6,49.3,4.6,76.6,5.4c24.3,0.7,47.2,0.5,68.7-0.4c1.2,0.9,2.7,2.3,4.4,4.2
									c2.1,2.3,4.1,5.2,3.6,7.3L3760.7,1021z"/>
							</g>
						</g>
						<g>
							<g>
								<g>
									<path class="st5" d="M3854.1,984.1c-0.1,0.7-4.6,0.8-9.2,2.8c-4.6,1.9-7,4.7-7.9,4.4c-0.8-0.2,0.7-4.1,6.2-6.4
										C3848.9,982.6,3854.3,983.5,3854.1,984.1z"/>
								</g>
							</g>
						</g>
						<g>
							<g>
								<g>
									<path class="st5" d="M3873.5,990.6c0.2,0.7-3.8,1.7-7,4.4c-3.3,2.6-4.2,5.6-5.1,5.6c-0.9,0.1-1.4-3.8,2.7-7.1
										C3868.1,990.1,3873.5,990,3873.5,990.6z"/>
								</g>
							</g>
						</g>
						<g>
							<g>
								<g>
									<path class="st5" d="M3884,1008c-0.8,0.1-2-3.2,0.5-6.8c2.4-3.6,6.8-4.9,7.1-4.3c0.5,0.6-2.3,2.4-4.3,5.4
										C3885.3,1005.2,3884.9,1008,3884,1008z"/>
								</g>
							</g>
						</g>
					</g>
				</g>
			</g>
			<g>
				<g>
					<path class="st5" d="M3758.6,966l98.8,3.5l17.7-199.6l18.9-203l-133.7-6.1c-2.6,0-5.2-0.1-7.8-0.1c-11.4,47.8-8.6,82-3.7,104.7
						c5.2,24.2,13.3,38.2,17.6,72.8c3.2,25.8,2.1,45.7,1.3,61.2C3765.1,847.7,3762.2,902.9,3758.6,966z"/>
					<path class="st5" d="M3947.8,572.9l79.8,164.9c12.9,24.7,5.7,47.3-22.1,66.4l-154,126.9l-78.7-59.8l157-105.2l-91.1-114
						l22.3-87l51.7,4.4L3947.8,572.9z"/>
				</g>
				<g>
					<path class="st23" d="M3991.2,787.6c0.1,0.1-2.3,1-7,2c-2.4,0.5-5.3,1-8.9,1.1c-3.5,0.1-7.8-0.2-11.7-1.2
						c-8-2.1-12.8-5.6-15.7-8c-2.9-2.5-4.3-4-4.1-4.1s2.1,1.4,5.3,3.8c3.2,2.3,7.9,5.5,15.3,7.4c7.4,1.9,14.6,1.1,19.2,0.4
						C3988.3,788.2,3991.1,787.4,3991.2,787.6z"/>
				</g>
				<g>
					<path class="st23" d="M3961.1,796c-0.5,0.1-5.5-3.8-11.4-8.7s-10.1-9-9.7-9.1s5.5,3.8,11.4,8.7
						C3957.2,791.8,3961.5,795.9,3961.1,796z"/>
				</g>
			</g>
		</g>
	</g>
	<path class="st24" d="M3877.3,119.2"/>
	<path class="st24" d="M3889.4,144.9"/>
</g>
<g id="Layer_14" class="st0">
	<path class="st25" d="M4029.8,745.6l-11.5-25.6l-10.2-21l-14.8-26.7l-11.9-25.8l-13.2-30.1l-15.5-35.8l-3-9.5l-24.8-1.8
		c-14.6,0.7-29.2,1.4-43.8,2.1c-8.6-1.5-17.9-2.8-27.7-3.8c-9.2-0.9-18-1.4-26.2-1.7c-14.6-0.2-29.2-0.3-43.8-0.5
		c-11.1-1.8-22.1-3.5-33.2-5.3c-0.5,10.2-1.1,20.3-1.6,30.5l0.5,30.5l2.6,31.6l7.9,38.3l10.2,33.7l11.4,38.5l8.6,38.3l4.4,30.7
		l1.8,28.5l-0.9,31.2l-1.6,26.7l2.1,16.6l-0.9,15.9l-4.2,13l3.9,13.9l5.8,4.5l1.3,1.4l44.9-2.6l41.3-2.4l0.1-1.4l4.2,0.4l4.4-6.3
		l-1.7-27.1l0.8-19.5l30-32.4l17.3-17.9l12-11.7l13.6-10.3l25.5-23.8l20.6-21.6l15.4-19.1l4.4-12.7l-0.6-17L4029.8,745.6z
		 M3939.8,768l-45.1,36.7l-1.1-12.8l-5.2-97.6l28.3,37.8l23.9,31.1L3939.8,768z"/>
	<polygon class="st26" points="3800,987.2 3801,977.5 3819.4,975.9 3850.9,975.8 3870.4,974.7 3886.7,973.7 3887.9,977.4 
		3887.4,984 3866.9,987.3 3835.9,989.5 3814.2,990.1 3801.3,988.5 3800,987.5 	"/>
	<polygon class="st27" points="3803.2,1019.8 3800.7,994.6 3800.2,989.4 3810.5,990.6 3831.3,990.2 3864,987.5 3886.5,984.2 
		3897.1,985.8 3917.5,988.4 3932.9,996.6 3945.4,1012.6 3932.3,1015.3 3874.6,1021.1 3843.9,1022.7 3815.5,1021.7 	"/>
	<polygon class="st28" points="3801.7,1035.1 3801,1019.8 3818.6,1021.8 3841.7,1022.6 3889,1019.8 3931.8,1014.8 3945.9,1013.3 
		3948.2,1026.2 3930.9,1028.5 3886.9,1031 3841.4,1033.2 	"/>
	<polygon class="st26" points="3775.6,210.7 3772.6,187 3774.1,163.2 3782.1,147.4 3802.7,133 3825.2,125.3 3833,129.4 3838.4,130 
		3853.7,129.4 3865.3,134.6 3894.3,160.3 3898.4,167.5 3897.1,183.2 3891.6,208.7 3885.9,229 3876.5,243.5 3871.6,251 3870.6,270.1 
		3883.6,270.1 3880.6,281.6 3872.5,289.1 3860.5,293.5 3858.4,297.7 3847.7,303.5 3843.7,324.8 3838.3,336.1 3828.8,343.5 
		3822.5,348.7 3812.7,387.1 3800.7,430.3 3793.8,452.2 3813,453.5 3873.4,453.7 3913.1,453.7 3943.7,456.3 3944.7,437.5 
		3941.5,387.5 3951.7,384.4 3972.7,381.2 3995.3,383.4 3997.9,399 4002.3,425.8 4008.6,459.3 4009.4,483.3 4006,500.5 3993.5,514.3 
		3980.3,521.4 3959.4,525.7 3945.8,525.5 3919.2,522.6 3903.4,520 3873.3,512.4 3827.4,503.4 3779.8,494.8 3773.2,493.4 
		3764.3,503.6 3753.9,510.4 3739.5,513.1 3723.6,508.9 3716,503.4 3712.6,495.1 3704,456.6 3696.5,415.6 3695.5,403.7 3708.5,399.6 
		3730.5,395 3747.6,394.5 3750.5,395.7 3764,366.8 3770.6,351.6 3779.3,326.7 3783,304.1 3784.1,278.4 3783,254.7 3775.6,217.9 	"/>
	<path class="st26" d="M2346.3,268.5c-0.5-0.1-13.4-3.3-13.4-3.3l-6-11.7l2-10.7l14.1,1.5l17-3.7l10-10.4l9.9-35l5.2-25.9l1.2-22.6
		l-1.4-23.4l-20.2-17.5l-20.9-9.3l-6.3,4.1l-6.1,1l-13.5-0.5l-15.4,3.7l-14.8,13.3l-8.5,25.1l-3.4,30.8l0.3,50l2.9,48.3l-1.3,14.6
		l11.9,5l11.9,2l22.2-1.7l10.4-4.2l8.3-9.2L2346.3,268.5z"/>
	<path class="st26" d="M1387.9,671.1l35.4-7.5l20.9-29.5l-31.7-12l5.6-30.2c-4.9-4.6-9.8-9.2-14.7-13.8c0.3-8.4,0.5-16.9,0.8-25.3
		c-1.9-1.5-3.7-3.1-5.6-4.6c0.3-3.3,0.6-6.6,0.9-10c-7.7-8.8-15.3-17.7-23-26.5c-4.9,0.8-9.8,1.7-14.7,2.5l-10.4-10.7l-13.1,3
		l-5.4,9l-17.6,4.3l-10.2,21c-3.2,16.2-6.4,32.5-9.7,48.7c6.8,24.3,13.7,48.6,20.6,72.9c-0.6,7.9-1.1,15.7-1.7,23.6
		c-11.1,25.4-22.2,50.7-33.3,76.1c-4,8-7.9,16-11.9,24c-2.9-7.4-5.8-14.8-8.8-22.2l-15.3-5.8l-41.6-4.3l-27.1,8.2l8.7,75.6l3.2,41.3
		l7.8,38.2l12.7,32.7l11.1,10.2l20.6,7.6l20.2,1.2l25.1-6.9l21.8-15l18.8-30.9l11.9-32.2l14.9-64.2l9.7-53.3l11.6-56.6l11.2-37.1
		L1387.9,671.1z"/>
	<path class="st28" d="M201,563.9l-18.6-11H169l-10.9,5.5c-1.7,4-3.3,8.1-5,12.2c-0.1,0.5-1.9,8.4-2.2,11.6
		c-0.1,0.9-0.1,1.8-0.1,1.8l0,0c0,0,0.4,3.5,0.4,3.7c0.6,6,6.6,23.1,8.5,28.9c1.4,3.9,1.3,3.7,1.3,3.9c4.1,9,13.7,21,15.1,23.3
		c0.2,0.3,0.9,1.5,2.1,3c0.8,1,1.5,1.8,2,2.3c3.5,3.9,9.3,9.4,17.8,13.9c7.3,3.8,13.9,5.5,18.7,6.3c1,0.2,2,0.4,3.1,0.6
		c1.2,0,2.6-0.1,4-0.4c5.1-1,8.8-3.4,11-5.1c0.9-0.7,1.7-1.4,2.6-2.1c0.9-1.3,1.8-2.6,2.7-3.8c0.7-0.4,1.7-1,2-2
		c0.3-0.8,0-1.4-0.1-2.4c-0.1-0.9,0-2.2,0.8-4c0.2-2.7,0.3-5.8,0.1-9.2c-0.2-2.6-0.5-5-0.9-7.1c-0.9-2.5-1.8-5.1-2.7-7.7
		c-3.6-9.9-7.4-19.2-11.4-28.1c-3.6-5.2-7.2-10.5-10.8-15.8l-4.6-7.2l-3.5-2L201,563.9z"/>
	<path class="st26" d="M257.9,534.4l-37.5,29.8c4.8,4.7,8.9,11.3,13.7,16c5.5,7.4,11,14.8,16.4,22.2c2.1,4.3,4.1,8.5,6.2,12.8
		c0.5-0.8,1.3-1.9,2.5-3.1c1.8-1.7,3.4-2.6,4-2.9c0.7-0.4,1.1-0.7,1.2-0.8c5-3,9.4-6.9,9.4-6.9c1.8-1.5,7.4-6.5,8.9-11.3
		c0.5-1.6,0.7-3.2,0.7-3.2c0.2-2.2-0.1-3.9-0.3-4.6c-0.8-3.9-1.1-0.9-1.7-12.2c-0.2-3.8-1-8.8-3.3-14.2c-0.8-1.8-1.6-3.4-2.5-4.8
		C269.8,545.6,263.8,540,257.9,534.4z"/>
	<path class="st29" d="M640.1,944.8l-8.6-47.8l-18.8-89.1c-0.6,2.8-1.2,5.5-1.8,8.3c-0.8,2.6-2.1,5.9-4.1,9.3
		c-2,3.6-4.3,6.4-6.2,8.5c-2.3,2.1-6.6,5.4-12.9,7.3c-4.6,1.4-8.6,1.6-11.4,1.5c-2.2-0.1-4.4-0.2-6.6-0.3c-11.1-2-25.8-4.4-43.1-6.9
		c-9.8-1.4-33.9-4.8-60.1-7.2c-28.2-2.5-42-2.3-75.4-3.4c-21.6-0.7-52.7-2-90.9-4.6c-31.7-2.7-63.4-5.3-95.1-7.9
		c-29.3-1-58.6-2-87.9-3c-7.4-0.5-13.8-1-18.6-1.5c-5.6-0.5-8.5-0.8-12.2-1.4c-7.3-1.1-13.3-2.7-17.8-4c-4,16.3-7.9,32.7-11.9,49.1
		c-0.8,2.3-2,5.6-3.4,9.7c-6.7,20-9,31.7-14.9,55.8c-6.3,25.7-9.4,38.6-12,46.5c-1.5,4.7-5.2,15.4-8.3,30.3
		c-1.2,5.7-2,10.4-2.5,13.6c-0.7,2.7-1.4,5.4-2.2,8.1c9.4,0.1,18.8,0.2,28.2,0.3c1-5.9,1.9-11.8,2.8-17.8c1.8-8.2,3.6-16.3,5.4-24.5
		c1.5-6.7,2.9-13.4,4.4-20.1c2.1-7.7,4.2-15.3,6.4-23l5.8-26.4l9.5-32.8l2.2-8.5c2.6-7,5.2-14,7.7-21c2.1-6.3,4.2-12.6,6.4-18.9
		c7.9,1.2,15.9,2.3,23.8,3.5l34.6,5.2l66.5,4.4c23.1,1.4,46.2,2.9,69.4,4.3c1.3,34.4,2.5,68.9,3.8,103.3c4.4-0.1,8.9-0.3,13.3-0.4
		c1.5-33.8,2.9-67.7,4.3-101.5c8.9,0.6,17.7,1.2,26.6,1.8l36.4,1.8c5.1,0.2,10.3,0.4,15.4,0.6c27.1,1.2,54.8,4.2,81.9,5.4l0.5,40
		l-0.3,22c0.2,17.4,0.5,34.9,0.7,52.3c0,12.4,0,24.8,0,37.2c0.2,8.1,0.5,16.2,0.7,24.3c0,7.3,0.1,14.6,0.2,21.9
		c7.5-0.3,15-0.3,22.5-0.3c0-0.3,0.1-0.6,0.1-0.9l0.2-12.9l1.7-35.6c0-13.5-0.1-26.9-0.1-40.4l0.5-33.9c0-7.1,0.1-14.2,0.1-21.3
		c-0.1-3.3-0.3-6.6-0.4-9.9c-0.1-2,0.1-3.4,0.1-3.8c0.1-3.8,0.1-13.7-0.4-37.5c3.5,0.2,9.2,0.6,16.2,1.1c23.9,1.6,27.8,2,37.4,2.2
		c10,0.3,8.9,0.3,19.3,0.2c4.1-0.1,8.1-0.2,12.2-0.2l7-0.8c5.1,0,10.2,0,15.3,0c6.5,30.2,13,60.3,19.6,90.5c1,3.2,1.9,6.4,2.8,9.6
		c1.2,4.8,2.3,9.5,3.5,14.3c0.5,0.1,1.4,0.3,2.5,0.4c2,0.2,3.7,0.2,9-0.2c1.1-0.1,2.5-0.2,4.1-0.3
		C642.2,961.5,641.2,953.1,640.1,944.8z"/>
	<path class="st30" d="M573.9,541.5c2.3,11.2,2.8,19.7,2.8,25.5c0,2.8-0.2,9.7,0.1,19.7c0.1,2.5,0.2,4.5,0.2,5.9
		c-0.4,1.1-0.8,2.1-1.1,3.2c-0.1,0.3-0.4,1.3-1.5,1.9c-1.5,0.9-3.1,0.1-3.2,0c-0.2-1.1-0.4-2.2-0.5-3.2c-0.2-1.2-0.4-2.5-0.6-3.8
		c-6.4-2.2-12.8-4.5-19.2-6.7c-12.3-2.5-24.6-5-36.9-7.5c-18-2.4-36-4.8-54-7.1c-2.9-0.5-5.8-0.9-8.7-1.3
		c-6.1,0.5-12.2,0.9-18.3,1.3c-2.9,0-5.8-0.1-8.7-0.1c-1.5,2.3-3,4.5-4.5,6.8c-1.4-1.4-2.8-2.8-4.3-4.2c1.8-3.5,3.5-7,5.3-10.5
		c1.3-4.3,2.6-8.7,3.9-13c0-3.6,0-7.1,0-10.7c18,0.5,35.9,1,53.9,1.4c1.9-0.6,3.8-1.2,5.8-1.8c-0.1-1.9-0.2-3.8-0.3-5.7
		c-9.8-5.9-19.7-11.8-29.5-17.8c1.2-0.9,2.3-1.8,3.5-2.7c9.7,1.8,17.5,3.7,22.6,5.1c7.2,1.9,8.8,2.6,37.7,11.5
		c4.2,1.3,10.4,3.3,18.8,5.2c4.5,1,7.2,1.7,10.8,2.5C553.9,536.5,562.8,538.6,573.9,541.5z"/>
	<path class="st26" d="M382.4,467c2.8-0.6,5.2-1.1,6.9-1.3c4.6-0.7,10-1.8,16.7-1.3c1.9,0.1,4,0.4,6.3,0.6c7.2,0.8,10.8,1.2,14.8,2
		c7.8,1.6,13.3,3.7,16.3,4.8c8.3,3,16,4.6,31.5,7.6c17.7,3.5,34.1,5.3,48.7,6.2l16.6,3c7.1,0,14.9,0.3,23.2,1.1
		c6.5,0.6,12.7,1.5,18.4,2.5c-0.2-3.8-0.4-7.6-0.7-11.4c0.3-2.9,0.5-5.7,0.8-8.6c0.2-8.1,0.5-16.1,0.7-24.2c1.3-2.1,2.6-4.2,3.9-6.3
		c2.2-1.8,4.4-3.5,6.6-5.3c6-1.8,15.2-3.8,26.4-3.2c8.3,0.5,15.2,2.2,20.2,3.9c-0.8,10-0.8,18.1-0.7,23.8c0.1,3.4,0.2,3.9,0.2,6.5
		c0,10.3-2.2,13.7-2.4,22.4c-0.3,11.4-0.3,19.2-1.6,28.6c-0.5,3.4-1,5.3-1.9,8.3c-1,3.4-1.6,4.7-2.3,5.7c-1.1,1.8-2.5,3.2-3.5,4.3
		c-0.8,0.8-1.4,1.4-2.3,2.1c-1,0.7-1.5,0.9-2.8,1.8c-1.2,0.8-2,1.5-2.2,1.7c-1.3,1.1-5,3.2-10.6,4.4c-8,1.8-16,1-18.4,0.7
		c-10.7-1.2-18.7-3.7-20.7-4.3c-14.8-4.6-14.2-2.3-39.7-8.2c-10.6-2.4-22.6-6-46.5-13c-13.6-4-24.8-7.4-32.6-9.8
		c-1.9-1.2-4.8-3.1-8.3-5.1c-5.7-3.3-9.1-4.9-13.5-7.2c-3.7-2-8.8-4.9-14.8-9c-5.2-2.9-10.4-5.8-15.7-8.7c-4.4-3.8-8.3-5.8-11.2-7
		c-2.7-1.1-6-2.1-6.7-4.7C381.6,469.1,382,467.9,382.4,467z"/>
	<path class="st26" d="M424.5,537.4c0.3,1.9,0.5,4.8,0,8.1c-0.2,1.5-0.5,3.8-1.6,6.3c-2,4.6-5.5,7.4-7.8,8.8
		c-2.2,1.6-4.4,3.2-6.6,4.7c-5.2-9.9-10.4-19.8-15.6-29.7c4.9,0.1,10,0.3,15.2,0.6C413.7,536.5,419.2,536.9,424.5,537.4z"/>
	<path class="st31" d="M431.1,259.9c-6.8-3.5-11.4-3.3-14.5-2.4c0,0-1.4,0.4-9.5,5l0,0c1.4,4.8,2.4,6.8,3.8,11.5
		c1.4-0.9,3.8,0.9,6.5,0.6c1.2-0.1,1.9,0,3.1,0c1.7,0,4.2-0.3,7.3-1.4c0.9-0.7,2.5-2.2,3.4-4.6C432.8,264.5,431.4,260.8,431.1,259.9
		z"/>
	<path class="st31" d="M462.7,254.1c3.9-3.4,7.2-4.3,9.6-4.4c5.1-0.2,9,0.6,11.5,1.5c3.9,1.4,6.7,3.4,8.4,4.8c0.4,0.8,0.8,2,0.6,3.5
		c-0.3,1.5-1.2,2.8-3.8,4.7c-2.5,1.8-5.3,3.7-9.9,4.6c-3.7,0.7-11,2-14.9-2.5C460.3,261.7,462.5,254.8,462.7,254.1z"/>
	<path class="st32" d="M419.3,256.9c-0.4,0.1-4.9,1.6-6.2,6.2c-0.8,2.9,0.2,5.3,0.5,6.1c0.4,0.8,1.8,3.8,5,4.6
		c2.6,0.6,4.8-0.6,5.3-0.9c2-1.2,2.7-3,3-3.7c1.2-2.9,1.3-7.4-1.7-10.1C423,257,420.2,256.9,419.3,256.9z"/>
	<path class="st32" d="M471.4,249.7c-0.6,0.4-1.5,1-2.4,2.1c-3.2,3.7-2.6,8.5-2.3,10.2c0.3,2.4,1,3.4,1.3,3.7c0.7,0.9,1.9,1.6,3.5,2
		s3.1,0.1,3.7,0c3.3-0.8,4.8-3.5,5-3.9c0.8-1.5,0.9-2.9,1-4.3c0.1-1.5,0.2-4.1-1-6.1C477.8,249.4,471.7,249.6,471.4,249.7z"/>
	<path class="st26" d="M127.2,640.3c2.7,8.5,3.5,8.1,4.4,13.2c0.6,3.7,0.7,6.3,0.7,6.3c2.1,11.3,4.2,22.6,6.4,33.9
		c-1.6,0.8-4,1.8-7,2.8c-2.8,0.9-3.1,0.8-6.7,1.8c-2.9,0.8-8,2.4-12.7,4.2c-2,0.8-2.9,1.2-4.5,1.3c-2.2,0.2-3.7-0.2-4.2,0.5
		c-0.2,0.4-0.2,1.1,0.9,2.6c-3.4-8-6.8-15.9-10.2-23.9l-22.5-28.9c-1.5-1.9-3-3.9-4.5-5.8c6-0.4,12-0.8,18-1.2c3-0.8,6-1.7,9-2.5
		c3.5-1,6.4-1.8,8.3-2.2c8.7-2.1,11.8-3.5,14.6-4.5c1.4-0.6,2.6-1.1,3.4-1.4c0.9-0.7,2.5-1.7,4-1.3
		C125.8,635.8,126.3,637.4,127.2,640.3z"/>
	<path class="st32" d="M423.5,244.2c-3.3,0.1-6.6,0.2-9.9,0.2c-2.7,1.6-5.5,3.2-8.2,4.8l1.3,6.7l4.3-0.8c1.4-0.4,2.7-0.9,4.1-1.3
		c2.3-0.9,4.6-1.8,7-2.7c1.1-0.6,2.1-1.1,3.2-1.7c0.6-0.8,1.1-1.5,1.7-2.2c-0.7-0.8-1.4-1.7-2.1-2.5
		C424.3,244.5,423.9,244.3,423.5,244.2z"/>
	<path class="st32" d="M474.3,235.3c-4.4,0.9-8.8,1.7-13.3,2.6c-0.8,1.3-1.5,2.6-2.3,3.9l4.8,3l6.6-0.5l9.9,0.5l6.8-0.5
		c3,0,5.9,0,8.9,0c0.1-1.4,0.1-2.7,0.2-4.1c-5.3-1.5-10.6-3-15.9-4.5C478.1,235.6,476.2,235.4,474.3,235.3z"/>
	<path class="st33" d="M154.9,566.1c-3.1,0.3-7.9,0.7-13.7,1.6c-5,0.7-6.2,1-13.2,2.2c-12.3,2-13,1.7-18.2,2.9
		c-3.7,0.8-9.1,2.2-15.7,4.9c-3.4,0.7-8.9,2.4-14.5,6.5c-3.6,2.6-6.1,5.5-7.8,7.7c-1.4,2.3-2.9,5.4-4.1,9.3c-0.9,3-0.7,4-1.7,12.4
		c-1.1,9.1-1.4,9.3-1.4,12.8c-0.1,2.6,0.1,5.2,0.5,10.4c0.3,4,0.6,7.2,0.8,9.5c0.6,0.9,1.2,1.8,1.8,2.7c3.1-0.2,6.2-0.6,9.5-1
		c2.4-0.3,10.8-1.5,16.8-2.8c10.6-2.3,20.7-6.6,25.7-8.9c-2.5,0.7-4.9,1.4-7.4,2c-0.5-1.8-1.2-4-2.2-6.3c-1-2.1-2-3.9-3-5.4
		c0-0.4,0-1-0.2-1.7c-0.3-0.9-0.8-1.6-1.1-1.9l1.3-9.2l7.3-10.3c8.9-1.4,17.9-2.9,26.9-4.5c3.8-0.7,7.6-1.3,11.3-2
		c-0.6-2.9-1.8-8.7-1.8-14.5c0-2.8,0.3-4.8,0.4-5.2c0.2-1.7,0.7-3.9,1.5-6.4C153.3,569.7,154,567.9,154.9,566.1z"/>
	<path class="st34" d="M137.6,694.8"/>
	<path class="st35" d="M422.9,551.8l-2.3,9.3c-0.9,3.1-1.8,6.3-2.6,9.4c-1.5,1.3-3,2.6-4.4,3.9c-1.8-4.7-3.6-9.4-5.4-14.2
		c2.7-1.9,5.4-3.7,8.1-5.6c2.8-2.2,5.5-4.3,8.3-6.5C424,549.3,423.4,550.5,422.9,551.8z"/>
	<path class="st33" d="M410.8,450.1c-0.5-0.4-2.3,2.7-3.8,2.4c-1.7-0.4-2.2-4.8-2.4-8.8c4-10.2,7.6-18.3,10.2-24.1
		c2-4.4,3.5-7.6,2.2-9.4c-2.5-3.2-12.7,0.7-16.5,2.3c-8.4,1.4-16.9,2.8-25.3,4.3c2.2,15.3,4.3,30.6,6.5,45.9
		c0.1,1.1,0.2,2.3,0.3,3.4l8-0.9c2.5-0.1,5.1-0.1,7.6-0.2s5.1-0.1,7.6-0.2c0.7-1.9,1.8-4.7,3.1-7.9
		C409.9,453.5,411.3,450.5,410.8,450.1z"/>
	<path class="st27" d="M255.3,611.9c-0.5-1.3-1.2-2.7-1.9-4.2c-1-2-2-3.7-3-5.3c-0.3-0.5-0.6-0.8-0.7-1
		c-3.1-4.1-10.2-14.6-16.8-22.9c-3.9-4.9-8.2-10.2-14.9-16.2c-4.1-3.6-7.7-6.3-10.3-8.1c-2.5-2.1-7.3-5.6-14.2-7.2
		c-3.8-0.9-7.2-0.9-9.7-0.7c-2.7,0.8-5.5,1.7-8.2,2.5c-3,1.7-6,3.3-9,5c3.3-0.7,10.5-1.7,19,1c9.1,3,14.6,8.7,16.7,11.3
		c2.2,2.6,4.4,5.2,6.6,7.8c1.6,1.3,3.1,2.6,4.7,4c4.4,5.9,9,12.9,13.4,21c2.6,4.9,4.9,9.6,6.8,14.1c2.3,4.4,4.9,10.7,6.4,18.5
		c1.8,9.3,1.4,17.3,0.7,22.7c0.6-0.9,1.4-2.1,2.4-3.6c1.6-2.5,4.4-6.8,6.7-10.8c1.8-3.2,4.2-7.7,6.5-13.5c0.1-3.5,0.2-7.1,0.3-10.6
		C256.3,614.4,255.8,613.1,255.3,611.9z"/>
	<path class="st36" d="M213.4,478c-0.9,0-1.8,0-2.7,0c6.8,3.9,12.3,7.2,16.2,9.7c4.7,2.9,9.1,5.6,14.2,8.9c3.4,2.1,6.2,3.9,8.1,5.1
		l6.8,2.1l30.3-11.8l36.8-9.3l12.1,1.8c7.6,3.9,15.2,7.8,22.9,11.7c7.9,7.5,15.7,15.1,23.6,22.6c2,3.9,4.5,8.2,7.6,12.5
		c1.5,2.1,3,4.1,4.6,5.9c3.2,0,6.4-0.1,9.6-0.2c10.5,0.2,21,0.4,31.5,0.6c10.8,0.5,21.6,1.1,32.5,1.6c5-0.2,10.1-0.4,15.1-0.6
		c0.5-0.4,2.7-2.4,2.3-4.7c-0.2-1.2-1-2.2-3.4-3.9c-3-2.2-4.4-3.2-7-4.3c-7.8-3.1-21.5-14.2-53.6-31.8c0,0-10.1-5.5-23.4-13.2
		c-5-2.9-7.6-4.4-8.3-5c-2.4-2-3.8-3.9-6.3-4.1c-1.8-0.1-3.2,0.7-4.3,1.5c-3-0.6-6.1-1.2-9.1-1.9c-5,0.2-10.1,0.4-15.1,0.6
		C307.5,473.9,260.5,475.9,213.4,478z"/>
	<path class="st37" d="M367.3,354.7c-1.4-10.6-2.1-16.9-2.3-25.5c0-2.2,0-5.3-0.3-9.9c-0.7-11-2.1-16-2.6-17.6
		c-1.1-3.6-2.4-6.5-3.3-8.3c-2.4-1.6-6.1-3.6-11.1-4.8c-6.2-1.5-11-0.8-17.3,0c-7.4,0.9-14.8,1.4-22.2,2.2
		c-35.4,3.7-53.1,5.5-66.6,6.2c-4.9,0.2-17.3,0.8-33.7,3.3c-4.9,0.8-8.9,1.5-11.4,2c-0.6,0.1-6.3,0.7-9.3,5.8
		c-2.5,4.2-1.5,8.5-1.3,9.3c5.4,33.2,10.9,66.5,16.3,99.7c1.5,10.4,2.9,20.7,4.4,31c1.1,7.8,1.5,14.4,1.6,15.7
		c0.3,3.2,0.5,5.9,0.6,7.8c58.1-2.2,116.2-4.4,174.4-6.7C374.7,408.6,368.9,367.2,367.3,354.7z"/>
	<path class="st38" d="M648.1,470.3"/>
	<path class="st34" d="M544.4,721.1"/>
	<path class="st39" d="M539.3,729.3"/>
	<path class="st40" d="M397.4,466.2"/>
	<path class="st28" d="M11.2,620.4c-0.5-0.1-1.4-0.3-2.4-0.2c-0.9,0.1-1.6,0.3-2.1,0.6c-0.8,0.7-1.9,1.8-2.8,3.3
		c-1.8,3-2.1,5.9-2.1,7.3c0,1.1,0,2.7,0.6,4.5c0.3,0.9,0.6,1.7,1,2.4c2.5,3.7,5.2,7.5,8.1,11.3c2.3,3,4.6,6,6.8,8.7
		c1.9,3.3,3.9,6.6,5.9,10c5.7,9.5,11.5,18.8,17.2,27.9c3.1,7.9,6.2,15.8,9.2,23.6l2.8,7.3l5.4,4.6c3.1,0.6,6.1,1.3,9.2,1.9
		c0.2,0,4.5-0.1,6.4-3.6c1.1-1.9,0.8-3.8,0.7-4.5c-0.2-1.7-0.8-4.3-2-7.3c-1.1-2.6-2.4-4.6-3.5-6.1C62.4,700.1,55.2,688,48,676
		l-2.5-9.3l-4.4-4.2l-2.3-5.9l-13.7-17.3l-8-13.7L11.2,620.4z"/>
	<polygon class="st37" points="383.4,466 380.7,464 207.8,470.6 207.4,476.8 210,478 381.6,471.6 	"/>
	<path class="st41" d="M381.5,468"/>
	<path class="st42" d="M108,807.6"/>
	<path class="st34" d="M535.3,532.2c0.1,0,0.8,0.2,0.8,0.2l0.8,0.2"/>
	<path class="st38" d="M514.3,272"/>
	<path class="st43" d="M471.1,300.2c-6.5,1.4-13,2.9-19.5,4.3c-1.1,0.8-3.7,2.8-5,6.2c-1,2.7-0.6,5-0.4,6.2c1.5,0.2,3,0.4,4.5,0.6
		c4.6,0.5,8.3-0.1,10.4-0.6c0.8-0.2,8.5-2.2,13.3-8.1c2.2-2.8,2-4.2,1.9-4.7C475.6,301.5,471.6,300.4,471.1,300.2z"/>
	<path class="st27" d="M87.2,674.2l-22.1-28.1c-2.4-3.8-4.7-6.6-6.3-8.5c-2.3-2.6-10.2-11.5-23.8-18.1c-2.7-1.3-5-2.3-6.5-2.8
		c-1.8-0.1-3.7-0.3-5.5-0.4c-3,0-6-0.1-9-0.1c-1.4,0.5-2.8,1.1-4.2,1.6c6.2,7,12.9,15.3,19.4,24.9c8.4,12.3,14.7,24.1,19.5,34.5
		c5.1,8.9,10.2,17.8,15.4,26.7c2.6,3.8,5.1,7.5,7.7,11.3c0.1,0.3,0.3,0.7,0.5,1.2c2.8,7.7,1.6,12.4,3.3,13.2
		c0.8,0.3,2.3-0.2,5.3-3.5c5.6-3.3,11.1-6.7,16.7-10c0.9-0.2,2.6-0.8,4.2-2.2c2.7-2.6,2.8-6.1,2.8-6.8c-1.1-4.3-2.3-8.6-3.4-12.9
		l-12.1-17.9L87.2,674.2z"/>
	<path class="st25" d="M570,590.5c-0.8-0.5-2-1.1-3.4-1.8c-9.7-4.7-17.9-6.1-22.7-6.9c-1.6-0.3-10-2-26.9-5.3
		c-18.7-3.7-18.3-4.2-28.3-5.8c-0.9-0.1-8.9-1-24.9-2.7c-4.3-0.5-8.7-0.9-14.3-0.7c-5.3,0.2-8.1,0.5-8.1,0.5
		c-3.1,0.3-4.2,0.6-6.9,0.6c-2.2,0-2.7-0.2-4.9-0.2c-1.3,0-3.5,0.1-5.6,0.6c-1.6,0.4-4.6,1.4-7.8,4.5c-1.2,0.4-2.4,0.7-3.5,1.1
		c-5.9-11.4-11.7-22.8-17.6-34.2c-5.4-8.4-10.8-16.9-16.2-25.3c-3.4-5.3-10-14-21.2-21.3c-13.3-8.6-26.2-10.6-32.7-11.1
		c-8.7,0.9-18,2.2-27.9,4.4c-29.5,6.5-53.4,17.6-71.1,28c-17.9,10-23.2,13.4-23.5,14.2c0,0-0.2,0.6-0.6,1.5
		c-0.1,0.3-0.3,0.7-0.4,1.1c-1.6,4-2.5,4.7-3.2,6.2c0,0-0.2,0.6-0.4,1.2c-0.8,2.6,0.1,7.3,0.2,7.5c2.8,1.4,5.9,3.1,9.1,5.5
		c5.4,3.9,9.3,8.1,12.1,11.6c6-3.9,12.1-8.1,18.4-12.6c7.6-5.5,14.6-11,21.2-16.4c2.8,2.2,5.9,4.9,8.9,8.1c3.6,3.7,6.5,7.2,8.9,10.5
		c1.7,3.6,2.7,6.8,3.3,9c1.4,5,1.8,9.6,2,11c0.1,1.1,0.5,5.5,1,9c0,0.1,0,0.2,0.1,0.5c0.1,1.2,0.4,3.7-0.1,5.9
		c-0.1,0.7-0.4,1.4-0.4,1.4s-0.4,1.2-1,2.3c-0.7,1.3-3.6,4.6-8.4,7.9c-2.3,1.8-4.7,3.6-7.1,5.5c-3.4,2.7-6.6,5.5-9.7,8.2
		c-0.2,4.2-0.3,8.4-0.5,12.6c-1.5,3.6-2.9,6.4-3.8,8.2c-4.1,8.1-6.3,9.9-11.9,20c-2.8,5-2.5,5-3.6,6.4c-0.3,0.4-7.1,8.3-17.5,8.1
		c-2.5,0-5.2-0.9-10.6-2.7c-1.8-0.6-7.2-2.3-11.5-4.5c-8.5-4.2-13.9-10.3-19.1-16.2c-1.9-2.2-10.2-11.8-16.9-26.9
		c-1.9-4.2-3.2-7.7-4-10.3c-1.1-1.9-1.6-3.6-1.9-4.7c-0.5-1.8-0.1-3.6-1.4-5.5c-0.3-0.5-0.6-0.8-0.8-1.1
		c-15.4,2.2-23.6,2.9-27.4,2.8c-0.9,0-3.9-0.2-7.3,1.1c-1.8,0.7-3.1,1.5-4,2.2c-2.1,2.1-4.2,4.2-6.3,6.3c-1,1.9-2.3,5-2.7,8.9
		c-0.2,1.6-0.1,2.6,0.6,8.5c1.4,10.9,1.9,13.2,3.4,13.7c0.6,0.2,0.7-0.2,3.6-1.2c1.7-0.6,2.8-0.8,3.6-1c1.8-0.5,4.4-1.4,8.2-3.3
		c1.2,3.2,2.3,6.7,3.5,10.2c1.5,4.9,2.8,9.6,3.9,14c0.6,5.7,1.4,11.8,2.7,18.4c1.1,5.6,2.3,10.8,3.6,15.6c-1.9,0.9-4.1,1.8-6.6,2.6
		c-2.8,0.9-5.5,1.5-7.7,1.9c0.3,1.5,0.6,3,0.9,4.5c0.7,2.8,1.5,5.7,2.2,8.5c0.5,0.9,2,3.1,4.7,4c2.1,0.7,4,0.2,5.9-0.3
		c2.5-0.6,4.3-1.7,5.4-2.5c0.6-0.1,1.2-0.2,1.8-0.3h6.2c2.9-0.4,6.3-1,10.1-2.1c3.2-1,6-2.1,8.4-3.2c1.8-0.6,3.6-1.2,5.4-1.8
		c1.6-0.9,3.3-1.8,4.9-2.7c2.1-0.8,4.1-1.7,6.2-2.5c1.4-0.3,2.7-0.6,4.1-0.9c2.7-0.4,5.3-0.9,8-1.3c3.7-0.8,7.6-1.4,11.7-2
		c10.8-1.5,20.8-1.9,29.7-1.7c28.9,0.6,57.8,1.2,86.6,1.8c15.2,0.2,30.4,0.5,45.6,0.7c16.5,1.6,32.9,3.3,49.4,4.9
		c7.1,0.9,14.3,1.9,21.5,2.8l11.6,1.8c8.3,1.3,16.6,2.7,24.9,4c7.9,1.9,15.8,3.7,23.7,5.6c8.6,2.9,17.1,5.8,25.7,8.8
		c3.6,0.7,7.3,1.3,10.9,2c1.8,0.6,3.7,1.2,5.5,1.8c4.8-11.6,9.5-24.2,14-37.9c4-12.2,7.2-23.9,10-34.9c0.3-4.4,0.7-8.9,1-13.3
		c0.3-2.6,0.6-5.2,0.9-7.9c0.2-2,0.5-4.8,0.8-8.3c1-12.6,0-11.5,0.8-18.7c0.7-5.5,1.6-8.5-0.1-12.5
		C571.8,592.8,570.7,591.4,570,590.5z"/>
	<path class="st29" d="M533.9,864.5"/>
	<path class="st29" d="M530,862.4"/>
	<path class="st44" d="M381,259c-0.4-0.2-0.7-0.4-1.1-0.6"/>
	<path class="st45" d="M451.1,303.9c0,0-4,4.2-4.9,5.7c-0.8,1.5-2.6,3.9-1.8,7.4s0,0,0,0s-12.8-4-11.1-9.2c1-3,6.3-3.4,11.1-3.6
		C447.8,304.1,451.1,303.9,451.1,303.9z"/>
	<path class="st29" d="M609.7,905.5"/>
	<path class="st44" d="M405.8,246.6"/>
	<path class="st37" d="M363.4,294.9"/>
	<path class="st26" d="M1496.8,434.1c-11.8-20.7-37.6-46.7-58.6-41.2c-5.9,1.6-10.3,5.3-13.4,8.9l-3.3-3.5l-11.4,0.7l-6.5,0.9
		c0,0-13.6,1.4-29.2,10c-15.6,8.5-26.6,28.5-26.6,28.5c-5.4,38.6-6.5,51.4-6.5,51.4c-0.8,5.8-1.2,11.9-1.2,18
		c0.5-0.4,1.1-0.7,1.8-0.9c0.2-0.1,0.5-0.3,0.8-0.4c3-0.9,6.1-1,9.1-0.3c1.8,0.4,2.7,0.7,3.6,1.3c4,2.8,2.8,8.3,5.4,9
		c1.6,0.4,4-1,5.5-2c0.8-0.5,1.7-1.2,3.1-1.2c0.7,0,1.2,0.2,2.1,0.4c3.7,0.8,5.8,1.3,7.8,2.8c1.3,1,2,2,4.7,7.2
		c2.4,4.7,3.2,7.2,5,10.2c1.4,2.5,5.4,9.2,3.1,12c-0.3,0.4-1.3,0.7-3.1,1.3c-1.4,0.5-2.8,0.9-4.7,0.9c-0.9,0-1.7-0.2-2.2-0.3
		c-0.7-0.5-1.7-1-2.9-1c-0.6,0-0.6,0.2-1.3,0.2c-1.2,0-2.3-0.4-3.2-1.2c-0.4-0.3-1-0.7-1.3-1l0,0c-0.1,0.4-0.8,1.1-1.1,1.5
		c-0.5,0.8-0.9,1.6-1.3,2.3c-1.3,2.4-2.9,4.7-4,7.2c-0.1,0.3-0.2,0.8-0.3,1.2c0.5,0,1.4,0,1.5-0.1c0.9-0.3,1.8-0.9,2.7-1.4
		c3.7-1.9,7.8-2.7,11.8-3.4c2.7-0.5,5.3-1,8-1.1c2.8-0.1,6,0.3,8,2.3c2.7,2.6,2.5,7.1,2.5,10.6c0,2-0.2,4.1,0.3,6.1
		c0.4,1.6,1.1,3.1,1.3,4.8c0.5,2.9-0.2,5.5-2.1,7.7c-2,2.4-4.6,4.5-7,6.5c-2.3,1.9-5.6,3.7-8.6,2c-4.8-2.8-0.3-9.5,0.2-13.3
		c0.1-0.7,0.3-1.6,0.2-2.3c-0.7,0-2,0.9-2.8,1.4c-1.5,1-4.9,2.9-4.2,5c1.2,3.6,3.2,7,4.4,10.7c0.2,0.7,0.4,1.4,0.7,2.1
		c1.3-0.8,2.7-1.4,4.2-1.8c5.1-1.5,10.4-1.5,15.6-1.5c2.2,0,4.4,0,6.7,0.1c1.2,0.1,2.8,0,4,0.3c1.9,0.6,2.5,2.5,2.6,4.6
		c9.2,0.5,25.8,0,42.2-9.7c0,0,7.1-4.2,13.4-10.3C1491.2,557.6,1527.7,488.5,1496.8,434.1z"/>
	<path class="st32" d="M1547.4,545.1c-0.5-8.3-1-15.1-1.3-19.4c-2.4-24.5-4.9-49.1-7.3-73.6c-1.8-13.1-4.7-28-9.2-44
		c-4.6-16.5-10-31-15.3-43.4c-9.2-11.7-18.4-23.4-27.5-35.1c-10.2-7.1-20.5-14.1-30.7-21.2c-7.1-2.8-14.2-5.7-21.3-8.5
		c-10.8-3.8-20.1-4.9-26.6-5.1c-17.7-0.7-32.4,4-40.9,6.7c-2.3,0.7-4.2,1.4-5.5,1.9c-4.1-0.5-9.6-0.9-16.2-0.6
		c-5.7,0.2-23.5,1.4-43.3,10.8c-20.6,9.9-32.3,23.6-42.4,35.3c-3.9,4.6-18.2,21.8-29.5,48.6c-9.2,21.7-12.1,39.5-14.7,56.7
		c-2.5,16-3,27.8-4,51.5c-1.9,46.4,0.9,58.2-1.7,78.4c0,0-3.1,24.3-2.8,37.2c0,0.3,0,1.3,0,2.5c-0.3,4.8-1.8,6.2-2.8,11.6
		c-0.7,3.7-1.1,5.8-1.3,8.4c-0.2,2.3-0.6,4-0.9,5.4c-1,3.2-1.3,5.6-1.4,6.1c-0.7,2.8-0.1,7.9,5.9,17.9c1.7,2,3.3,4.1,5,6.1
		c9.3,2.3,18.7,4.6,28,7c8.8,3.3,24.6,7.8,44,5.3c9.2-1.2,16.8-3.6,22.8-6.1c2.9-0.6,5.8-1.2,8.7-1.8c2.3-9.2,2-16.4,1.2-21.3
		c-1-6.2-2.6-8.2-6.4-19.9c-2.7-8.3-1.6-6.6-5.5-19.7c-4.5-15.3-6.4-19.5-6.8-28.3c-0.2-4,0.1-7,0.3-8.9c0.8-9.7,2.8-12.1,6.5-26.4
		c3.1-12,2.9-14.6,6.3-19.4c4.1-5.8,8.8-8.2,9.8-8.7c5.2-2.5,10-2.6,12.4-2.4c2.5-3.2,4.9-6.4,7.4-9.6c-0.1-14.9,1.1-27.4,2.4-37.1
		c1.4-10.3,2.9-21.6,6.5-31.5c0.5-1.2,2-5.4,3.7-11.1c1.5-5,2.5-9.1,3.2-11.9c1.9-3,4.4-6.4,7.7-9.8c5.3-5.6,10.8-9.4,15.1-11.9
		c5-1.4,10-2.7,15-4c4-0.4,8-0.8,12.1-1.2c4.1,0.2,8.2,0.4,12.3,0.6c2.9-0.1,5.7-0.2,8.6-0.3c0.5-0.5,1.3-1.1,2.2-1.2
		c1.1-0.1,1.5,0.5,2.1,0.3c1-0.4,0.4-2.4,1.2-4.2c1-2.2,3.9-3.1,5.8-3.3c3.1-0.2,6.2,1.6,7.8,4.5c1.4,0.2,2.4,0.5,3.1,0.8
		c3.8,1.6,4.8,4.6,8.7,5.7c0.5,0.1,0.9,0.2,1.1,0.2c1.9,0.3,4.7,0.9,7.4,2.7c1.2,0.7,1.9,1.4,3.3,2.7c2.9,2.8,4,4.9,8.5,8.4
		c4.1,3.2,6.3,3.6,8.6,5.5c0.8,0.6,0.5,0.5,2.1,2.1c2.5,2.4,4.7,4.2,6.2,5.4c0.7,0.3,1.5,0.9,2,1.8c0.4,0.8,0.3,1.6,0.3,1.8
		c-0.3,2.7,1.1,6.1,1.9,13.3c0.2,2,0.4,4.9,0.4,8.4c-0.6,10.8-1.6,22.3-3.2,34.5c-2.1,15.3-3.6,22.8-4.7,27.7
		c-2.7,11.4-3,8.3-10.1,32c-3.6,12-5.1,17.9-10.3,25.2c-2.1,2.9-5,6.9-10.2,10.3c-6.6,4.3-12.9,5.2-20.1,6c-5.3,0.6-13.4,1-23.2-0.8
		c-1.8,3.6-1.6,9.8-3.4,13.5c-1.1,5.3-2.3,10.5-2.6,15.9c-0.1,1.4-0.1,2.8-0.2,4.1c7.7,0.7,15.2,4.5,22.4,7
		c4.3,1.5,8.8,2.4,13.2,3.4c0,0,8.2,2.1,15.1,3.7c14.3,3.4,26.1,5.6,29.7,6.3c10.6,2.2,26.1,7.6,46.5,22.3
		c8.1-8.9,7.8-21.7,7.8-30.7C1545.6,587.5,1550.6,599.3,1547.4,545.1z"/>
	<path class="st32" d="M1392.9,442.1c6,0.8,12.1,1.6,18.1,2.5c0.8,0.2,2.6,0.8,4.2,2.5c1.9,2,2.3,4.2,2.4,5c-2.2,1-4.5,2.1-6.8,3.1
		c-3.2,0.2-6.4,0.5-9.6,0.8c-5,0.5-10,0.9-15,1.4L1376,458c-4-0.1-8-0.3-12-0.4c-0.2-0.1-2.6-1-3.2-3.4c-0.4-1.4,0.1-2.6,0.2-3
		c7.8-2.4,15.6-4.8,23.4-7.2C1387.2,443.3,1390.1,442.7,1392.9,442.1z"/>
	<path class="st31" d="M1462.3,472.3c1.7-2,5.2-5,11.3-7.1c3.7-1.3,7-0.9,9.2-0.8c0,0,2.4-1,15.4,4c-1.1,7.4-2.2,10.5-3.2,17.9
		c-2.2-1-5.4,2.1-9.4,2.2c-1.8,0.1-2.7,0.4-4.6,0.6c-2.6,0.3-6.3,0.5-11.2-0.5c-1.2-0.7-4.1-2.6-6-6.2
		C1461.4,477.9,1462.1,473.6,1462.3,472.3z"/>
	<path class="st31" d="M1412.5,470.2c-2.9-2.1-7.6-4.8-13.6-5.3c-6.7-0.5-11.8,1.8-16.5,4c-5.3,2.5-9.2,5.4-11.7,7.6
		c-0.4,1.2-0.8,3.1-0.1,5.2c0.7,2.1,2.3,3.9,6.7,6.1c4.1,2.1,8.6,4.5,15.6,4.8c3.9,0.2,17.3,0.9,21.5-6.8
		C1417.8,479.6,1413.2,471.4,1412.5,470.2z"/>
	<path class="st31" d="M2361.3,152.5c1.2-1.2,3.7-3.1,7.9-4.4c2.6-0.8,4.8-0.6,6.4-0.6c0,0,1.7-0.6,10.6,2.3
		c-0.8,4.5-1.6,6.4-2.4,10.9c-1.5-0.6-3.8,1.3-6.5,1.5c-1.3,0.1-1.9,0.3-3.2,0.4c-1.8,0.2-4.4,0.4-7.7-0.2c-0.9-0.4-2.8-1.5-4.1-3.7
		C2360.5,155.9,2361.1,153.3,2361.3,152.5z"/>
	<path class="st31" d="M2326.8,151.1c-2-1.3-5.2-2.9-9.4-3.2c-4.6-0.3-8.1,1.2-11.4,2.7c-3.7,1.6-6.4,3.5-8.1,4.9
		c-0.3,0.8-0.6,2-0.1,3.3c0.4,1.3,1.6,2.4,4.5,3.8c2.8,1.3,5.9,2.7,10.7,2.9c2.7,0.1,11.9,0.4,14.9-4.5
		C2330.4,157,2327.3,151.8,2326.8,151.1z"/>
	<path class="st32" d="M1478.9,464.4c0.6,0.1,4.9,0.7,7.7,7.1c1.8,4.1,3.7,7,3.3,8.2c-0.4,1.3-1.8,6.1-6.5,7.9
		c-3.8,1.5-7.2,0.1-8.1-0.3c-3.1-1.4-4.7-3.9-5.3-4.9c-2.4-4-3.4-10.7,0.5-15.4C1473.5,463.6,1477.6,464.6,1478.9,464.4z"/>
	<path class="st32" d="M1398.6,466.4c2.2-0.3,3.4,0.6,4.2,1c4.7,2.1,6.8,7,6.9,12.7c0,3.7-0.8,5.2-1.1,5.7c-0.9,1.5-2.4,2.7-4.8,3.7
		s-4.5,0.9-5.5,0.7c-5-0.5-7.9-4.2-8.2-4.7c-1.6-2.1-2-4.1-2.4-6.1c-0.6-2.9,0.4-5.4,1.9-8.3
		C1391.4,467.5,1393.3,466.2,1398.6,466.4z"/>
	<path class="st32" d="M1470.1,444.7c4.9-0.6,9.8-1.1,14.7-1.7c4.4,1.8,8.8,3.6,13.2,5.5l-0.6,10.2l-6.5-0.2
		c-2.1-0.4-4.2-0.8-6.3-1.1c-4.1-0.7-8.1-1.3-12-1.8c-3.1-0.4-6.2-0.8-9.2-1.2c-1-1.6-2.1-3.2-3.1-4.9c2.7-1.3,5.4-2.5,8.1-3.8
		C1468.9,445.4,1469.5,445.1,1470.1,444.7z"/>
	<polygon class="st26" points="1199.2,928.1 1159.8,928.1 1154,934.3 1155.6,943.6 1160.3,946.8 1157.5,955 1159.5,961.6 
		1166.4,966 1164.9,973.9 1168.2,978.6 1179.5,982.1 1175.3,986.8 1178.4,993.9 1186.3,996.5 1286.8,994.7 1371.2,992.8 1425.8,993 
		1485.6,996.9 1540.2,996.9 1578.2,988.9 1601.3,974.8 1612.8,953.8 1615.5,927.1 1612.5,898.2 1605.3,828.3 1592.8,758.4 
		1576.1,753.1 1551.9,753.7 1533.8,763.4 1522.3,776.3 1519.3,789.3 1521.5,795.3 1522.5,847.8 1525,895.2 1525.8,908.6 
		1486.1,909.4 1428.1,916.8 1350.7,930.9 1319.2,933 	"/>
	<path class="st30" d="M1314.9,683.6c-9,2.3-18,4.6-26.9,7l-21.3,1.8l-52.7-12c-1.6-0.8-3.1-1.7-4.7-2.5
		c-4.9,6.5-9.9,12.9-14.8,19.4c-4.2,8.4-8.3,16.9-12.5,25.3c-3.5,12.4-7,24.9-10.4,37.3c-0.4,0.7-6.2,12.8,0.3,22.5
		c2.4,3.5,5.5,5.5,7.7,6.5c0.1-3.6,0.2-7.1,0.3-10.7c7.3-3.3,22.1-9,41.4-7.9c22.4,1.2,38.3,10.8,44.9,15.3c2.6-2.6,5.1-5.3,7.7-7.9
		C1287.4,746.4,1301.2,715,1314.9,683.6z"/>
	<path class="st30" d="M1319.2,929.7l16-33.9l10.4-39.6l32.2-157.8l9-29.1l4.5,1.7l30.1-6.7l13.5-13.9l8-16.9l23.3,5.8l39.1,7.8
		l47.8,29.1l24.4,26.3l9.9,17.2l4,14.4c1.8,6,3.5,12.1,5.2,18.1c1.5,6.5,2.9,12.9,4.4,19.4c-0.9,2.7-1.8,5.3-2.8,8
		c-0.8-2-1.7-4-2.5-5.9c-6.1-2.1-39.6-12.8-65,5.5c-3.6,2.6-7.5,6.1-11.2,10.9c1.3,24.4,2.5,48.9,3.8,73.3l2.5,45.3l-29-0.4
		l-62.2,7.3l-66.7,12.2l-41.4,5.2l-8.3-1.4L1319.2,929.7z"/>
	<polygon class="st26" points="412.2,446.5 405.9,465.1 431.2,467.4 430.5,450.2 419.9,446.2 	"/>
	<path class="st30" d="M1206.8,753.2"/>
	<path class="st36" d="M426.3,500"/>
	<polygon class="st43" points="2459.3,650.6 2484.1,651.2 2487.1,634.8 2494.5,626.9 2504,628.1 2511.6,633.6 2517.8,654.7 
		2541.4,658.3 2544.8,644.7 2547.3,629.3 2552.5,618.7 2559.1,615 2567.6,617.1 2571.6,622.1 2574.6,631 2575.9,646.2 2575.9,671.3 
		2596.8,684.3 2617.9,702.5 2631.2,719.4 2644.2,738.4 2652.3,748.7 2661.9,750.6 2674.8,750.6 2682.6,753.1 2689.7,759.4 
		2693.8,766.6 2696.8,775.9 2698.8,801 2696.9,834.8 2693.6,859.1 2688.7,872.1 2678.4,877.7 2649.1,879.4 2643.9,881.8 
		2638.5,893.7 2626.9,909.1 2602.8,929.9 2573.3,947.5 2548.7,956.2 2550.5,973.7 2548.8,982.9 2540.8,988.8 2523.3,993.4 
		2488.6,994.5 2487.1,1007.6 2482.5,1016.8 2473.5,1021.9 2418.6,1022.4 2410.4,1017.9 2405.7,1008.7 2403.7,995.9 2402.5,955.5 
		2397.7,956.5 2393.8,975.7 2386.2,980.4 2333.2,982.2 2330.8,986.1 2330.4,1000.1 2326.1,1008.2 2321.1,1011.9 2308.7,1014.4 
		2261.6,1013 2251.8,1008.9 2248.3,998.4 2248.3,935.5 2234.5,928.3 2206.5,909.5 2185.2,885.7 2175,868.9 2164.4,843.2 
		2157.4,812.4 2156.3,806.8 2127.2,802 2119.2,800.2 2103,805 2085,800.2 2072.5,787.3 2066.7,772.4 2066.7,762.8 2071.2,755.9 
		2075.5,755.2 2080.1,759.1 2082.5,773.4 2088.1,781.9 2100.2,786.8 2103.5,785.9 2100,771 2100.8,759.5 2106.1,748.2 2112.3,742.9 
		2122.1,739.8 2131.9,742.4 2139.4,751.3 2141.8,762.8 2141.2,777 2158,776.3 2160,764.5 2166.7,741.7 2178.2,722.9 2192.5,703.8 
		2209.8,687.6 2225.9,677.4 2335,643.3 	"/>
	<polygon class="st32" points="2329.2,134.9 2318.8,130.8 2297,135 2289,140.4 2291.5,143.8 2325.4,139.9 	"/>
	<polygon class="st32" points="2386,135 2376.6,131.3 2363,134.1 2359.1,136.2 2363,140.5 2382.5,143.3 2387.6,140.6 	"/>
	<polygon class="st32" points="2318.9,148.7 2309.4,151.4 2308.2,157.1 2312.6,163.6 2320.6,163.6 2324.7,158.1 	"/>
	<polygon class="st32" points="2372.8,147.8 2365.4,151.2 2366.1,158.6 2372.3,163 2379.5,159.9 2378.8,151.4 	"/>
	<polyline class="st46" points="2159.1,381 2164,409.6 2167.1,445.6 2171.3,466.4 2175.3,479.2 2181.8,492.3 2188.1,499.2 
		2205.1,504.8 2219.4,505.9 2238.4,500 2259.9,486.7 2282.6,464.9 2307.5,437.4 2342.4,398.1 2355.5,396.1 2375.2,388.3 
		2405.5,376.8 2420.4,383.1 2428.5,396.1 2430.6,400.7 	"/>
	<path class="st30" d="M2181.1,299.1l-14.8,23.4l-8.3,22.6l-4.3,24.6l4.3,11.3l6.6-4.2l28.6-4.9l27.2,3.2l18.2,10.2l-1,28.1
		l42.2-27.7l43-32.1l30.2-13.7l45.8-6.9c5.7,0.3,17.5,1.8,28.8,10c4.9,3.5,8.3,7.4,10.8,10.6c7.2-1.8,14.5-3.5,21.7-5.2
		c1.1,2.8,2.1,5.5,3.2,8.3l3.7-10.2l-4.5-12.8l-12.5-15.2l-10.9-15.9l-10.3-11.5l-8.7-5l-14.4,13.3l-12.3,3.6l-22.3,0.1l-6.3-8.5
		l-8.1-18.1l-7.2-7.1l-3.5-0.9l-6.4,13.5l-8.3,7.2l-15.9,4.2l-14.5,0.4l-12.7-1.9l-10.2-4.3l-5,8.9l-6.7,11l-12.8,6.8l-20.2-1
		l-11.6-1.9l-8.8-7.5l-11.1-5.3L2181.1,299.1z"/>
	<path class="st30" d="M2411.6,379l-6.7-1.9l-19.1,7.9l-19.7,6.9l-13.8,4.7l-10.7,2.2l-54.7,62.3l-27.6,25.3l-19.6,12.8l-18.8,5.9
		l-19.7-1.1l-8.5-3.5l-2.2,20.7l-2.7,9.7l4,11.7c0,0,5.2,3.6,4.8,3.2c-0.5-0.4,0-6.4,0-6.4l47.7,4.5l114.4-1.5l45.8-2.2l0.7,4.5
		l7.9-1.5l1.3-8.1l-3.1-15l-0.7-77.8l-0.6-13.6l-11.6,2.2l-4.8-1.4l0.5-4.4l17.5-9.5L2411.6,379z"/>
	<path class="st26" d="M2460.3,348.4c-2.7,0.7-5.5,1.5-8.3,2.5c-18.7,6.6-32.2,17.9-41.3,27.7c0.3,12.8,0.7,25.6,1,38.4l66.1-33
		L2460.3,348.4z"/>
	<path class="st26" d="M2418.5,428.2l67.2-14.5l2.1,1.3l16.7-9.9l11-10.2l2.1-17.7l-4.4-5.6V365l5.6-2.6h3.6l1.6-8l8.1-6.9h3.7
		l2.3-6.3l8.8-3.8l9.3,3.5l5.8-2.5l7.7,4.2l7.3,9.9l8.1,1.5l6.7,10.4l2.6,11.5l-1.4,9.1l-10.4,15.3l-8.5,12.3l-10.9,11.5l-19.9,11.6
		l-20,31.8l-12,13.3l-19.2,7.4l-25.7,0.9c-4.2-2.4-8.5-4.8-12.7-7.1c-6.4-7-13.4-15.6-20.2-26.1
		C2427,445.6,2422.2,436.4,2418.5,428.2z"/>
	<polygon class="st36" points="2517.3,380.3 2476.6,384.6 2394,425 2394,430.6 2402.5,430.6 2487.7,415 2512.4,399 2517.3,389.9 	
		"/>
	<polygon class="st37" points="2594.9,369 2584.1,268.5 2579.7,244.3 2574.8,239.2 2566,237.5 2468.8,249.4 2463.9,253.7 
		2462.9,262.6 2472.7,316.1 2480.9,385.4 2517.3,380.3 2516.2,376.5 2513,371.6 2513,364.9 2522.6,360.4 2524.7,352.8 2528.9,349.3 
		2535.3,346.4 2538.8,340.1 2548.3,337.2 2554.5,341 2561.9,338.1 2570.2,343.2 2577.8,352.3 2586.8,354.9 2592.7,363.5 	"/>
	<path class="st43" d="M2346.7,206.5c-7.2-0.6-14.4-1.1-21.7-1.7l-7.8-1.4l6.4,12.7l15.4,2.7c5.4-1.5,10.9-3,16.3-4.6
		C2352.5,211.6,2349.6,209,2346.7,206.5z"/>
	<path class="st45" d="M2362.4,202.9l-21.8,2.2c1.9,0.5,5.5,1.6,8.9,4.6c2.5,2.2,3.9,4.5,4.7,6.1L2362.4,202.9z"/>
	<polygon class="st25" points="2407.5,545.4 2405.7,539.2 2358.5,542.4 2287.7,544.4 2251.2,543.9 2207.7,539.9 2191.7,539.5 
		2195.7,580.6 2206.6,635.8 2220.2,690 2232.2,727.3 2235.3,745.7 2235.5,799.1 2239.9,830.3 2237,859.4 2235.2,884.5 2240.7,896.5 
		2249.3,900.3 2254.4,900.3 2254.2,888 2278.4,884.5 2328.2,884.2 2328.3,893.4 2337.4,889.2 2342.5,881.7 2339.6,862.6 
		2338.5,841.6 2333.1,815.8 2331.9,781.4 2325,740 2314.5,697 2305.6,659.9 2343.2,650.4 2367.7,652.5 2374.5,662 2384.4,706.1 
		2387,756 2390.1,767.2 2390.9,785.7 2404,792.8 2402.7,783.2 2429.2,772.3 2471,765.9 2477,765.1 2477,770 2484.7,762.3 
		2479.7,741.1 2466.5,701.8 2459.9,660.3 2449.5,631.2 2435,603.6 2416.4,570.6 	"/>
	<path class="st26" d="M2254.4,886.9c8-0.8,16-1.6,24-2.4c16.1-0.1,32.2-0.2,48.3-0.3c0.9,6.2,1.8,12.4,2.7,18.6
		c-1.2,0.9-2.5,1.7-3.7,2.6c-6.6,4.8-12.5,7-16.5,8.3c-13.8,4.1-16.6-1.2-32.4,2.5c-2.4,0.6-8.5,2.1-14.4,0.3c-3.4-1-6.5-3-6.5-3
		c-2-1.2-3.5-2.5-4.5-3.5l2.8-4.1C2254.3,899.6,2254.3,893.2,2254.4,886.9z"/>
	<path class="st26" d="M2477.8,761.2l-1.7-7.5c-6.6,1.5-13.2,3-19.9,4.5c-7.2,2.1-14.4,4.2-21.6,6.3c-10.2,5.6-20.3,11.2-30.5,16.7
		c2,7.5,4,15.1,6.1,22.6l8-14.2l15.3-15L2477.8,761.2z"/>
	<path class="st27" d="M2330.9,892.9l-2.7,9.9l-17.1,7.6c-5.3,1.7-11.9,3.4-19.6,4.3c-9.1,1.1-17,0.8-23.2,0.2
		c-3.9-0.6-7.8-1.2-11.6-1.8l-6.7-2.7v17.9l3.6,17.9l1,21.1l2.2,4l14.4,5.9l7.3,1.5l22.5-1.1l20-7.5l15.8-10.8l3.8-9.2v-14.4
		c0,0-1.4-14.5-2.3-16.2c-0.9-1.8-4.5-22.2-4.5-22.2L2330.9,892.9z"/>
	<path class="st27" d="M2413.6,797.7l-4.8,12.4c0,0,6,30.6,5.8,30.1s5.9-11.6,5.9-11.6L2439,812l17.9-10.8l19.2-8.5l17.9-5l12.4-0.1
		l12.4,4.2l-1.6-7.7l-8.4-14.1l-8.5-6l-22.1-1.8l-42.6,11.2l-7.9,7L2413.6,797.7z"/>
	<polygon class="st28" points="2254.7,969.9 2273.3,978.1 2294.7,978 2322.4,969.9 2339.9,954.6 2342.3,951.2 2341.9,964.7 
		2336.1,974.5 2325.9,981.3 2310.4,986.6 2293.7,988.3 2272.7,987.7 2261.6,983.4 2255.8,980 	"/>
	<path class="st28" d="M2497.2,787.3c-0.5,0-28.6,8.8-28.6,8.8l-24,13.2L2425,825l-10.4,15.3l4,15.8l6.4,0.9l16.5-0.9l30.8-7.2
		l20.8-10l12.8-12.8l3.2-5.2l9.9-5.6l5.1-9.3l-2.4-12.8l-8.5-4.6L2497.2,787.3z"/>
	<path class="st26" d="M2308.2,910.4"/>
	<path class="st26" d="M2293.7,915.3"/>
	<path class="st33" d="M3724.4,226c-3.7-7.6-7.4-15.3-11.1-23c-8.3-18.3-23.7-46.5-51.2-73.8c-8-7.9-41.5-40.1-96.7-59.5
		c-31.2-11-54.9-12.8-96.6-15.9c-25.2-1.9-63.8-4.6-113.7,2.3c-27.6,3.8-57.8,8.2-94.4,24.1c-34.8,15.1-56.3,32.3-61.2,36.4
		c-9.6,7.9-26.7,22-42.4,45.2c-8.4,12.4-16.2,34.2-31.4,77.4c0,0-17.4,49.3-11.6,84.8c0.2,1.4,0.9,5.5,4,7.5c2.8,1.8,6.3,1,7.5,0.7
		c10-2.1,20.4,1,30.6,0.7c13.7-0.4,52.4-1.5,105.3-3.1c1.7,0.6,3.4,1.2,5,1.8c19.1,0.1,38.2,0.2,57.3,0.3c0.9-13,4.9-50.4,29.2-81.8
		c11.2-14.4,26.9-27.9,38.5-33c4.1-1.8,7.4-2.4,18.2-7c5.6-2.4,8.1-3.6,12.1-3.8c6.5-0.3,11.7,2.5,14.5,4.1c31.2,18,46.8,27,57,39.9
		c19.2,24.4,22.8,49.1,25.8,70.2c2.1,14.8,4.1,30-2.1,46.6c-1.7,4.5-4.4,10-9.8,21.1c-6.4,13-9.8,20-13.1,25.3
		c-10.5,16.9-25.3,25.6-39.3,33.8c-7.9,4.6-25.5,14-49.7,18.8c-17.6,3.4-31.6,3-52.9,2.4c-13.7-0.4-25-1.5-33-2.4
		c0,7.8-0.1,15.5-0.1,23.3c-0.5,10.9-1.1,26.7-1,45.7c0.2,25,1.4,32.9,3,80c1.1,29.8,1.1,40.2,1,47.3c-0.2,18.9-0.9,31.2-1.6,44.6
		c-0.9,18.5-1.9,45.1-1.9,78.3c-0.6,5.4-1.2,10.9-1.9,16.3c49.1-0.6,98.3-0.9,147.4-1.1c20.2,0,40.3-0.1,60.5,0
		c0.3-24.6,0.6-44.7,0.8-58.5c0.7-51.8,1.2-74,1.9-96.4c0.6-17.5,1.1-32,1.6-41.5c2.7-1.2,6.7-3.1,11.6-5.5
		c48.4-23.1,72.6-34.7,90.1-48c36-27.3,56.2-60.5,64.9-77.1c4.1-7.7,7-14.3,9-19c-8-19.5-8.8-29.2-7.7-34.5c0.3-1.3,1.6-6.9-1.1-9.3
		c-1.5-1.3-3-0.8-4.6-2c-2.8-2.2-2.1-7.5-1.7-10.7c1.2-11.5-1.7-8.5-0.7-27.9c0.2-4.2,0.5-9.3,1.4-16c1.4-10.2,2.8-19.8,7.1-28.9
		c2.6-5.3,8.9-16,23.7-24.9c0.7-4.6,0.7-8.4,0.6-11c-0.3-8.4-2.4-12.3-1.8-21c0.1-2.2,0.2-1.4,0.8-6.1c1.4-11.7,0.8-15.8,1.8-25.8
		C3723.1,234.4,3723.6,230.6,3724.4,226z"/>
	<path class="st33" d="M3528.2,872.2c-19.7,0.1-39.3,0.2-59,0.2c-50.1,0-100.2-0.2-150.2-0.8c-0.5,46.4-1.1,92.8-1.6,139.2
		c10,0,27.5,0.1,49.3,0.1c52.4,0,104.9-0.3,104.9-0.3c2.1,0.5,4.1,1,6.2,1.5l52.6-1.9l-1.5-74.6l-0.1-27.8l0.7-15.8L3528.2,872.2z"
		/>
	<polygon class="st32" points="3820.4,157.7 3814.1,156.8 3793.6,158.5 3783.9,162.4 3782.1,166.7 3783.4,168.2 3797.9,164.9 
		3809.3,166.6 3819.9,165 3822.3,161.5 	"/>
	<polygon class="st32" points="3851.5,158.3 3870.7,157.4 3879.9,159.8 3886.1,164.6 3884.4,167.6 3877.3,166.1 3864.6,164.7 
		3854.6,165.7 3849.5,162.5 3850.3,159.9 	"/>
	<path class="st31" d="M3815.2,178.2c-1.9-1.4-5-3.2-9.1-3.7c-4.6-0.5-8.2,0.8-11.5,2c-3.8,1.4-6.6,3.1-8.4,4.4
		c-0.3,0.7-0.7,2-0.3,3.3c0.4,1.4,1.4,2.5,4.3,4.1c2.7,1.4,5.8,3.1,10.5,3.5c2.6,0.2,11.9,1.1,15.1-3.6
		C3818.4,184.3,3815.6,179,3815.2,178.2z"/>
	<path class="st31" d="M3854.3,177.1c1.9-1.3,4.9-2.9,8.7-3.1c4.2-0.2,7.4,1.4,10.4,2.8c3.3,1.6,5.7,2.1,7.2,3.5
		c0.2,0.8,0.5,3.4,0.1,4.7c-0.5,1.3-1.5,2.4-4.3,3.7c-2.6,1.2-5.6,2.6-9.9,2.7c-2.4,0.1-11,0.2-13.6-4.7
		C3850.8,183,3853.8,177.9,3854.3,177.1z"/>
	<polygon class="st32" points="3804.2,173.9 3799.9,173.9 3797.9,180.6 3798.5,187 3803.4,190.8 3811.3,189.5 3813.9,183.3 
		3811.2,175.3 	"/>
	<polygon class="st32" points="3869.7,174.3 3864.3,175.4 3862.1,183.3 3865.3,190.4 3872.9,192.3 3876.4,187 3877.3,180.9 
		3872,174.9 	"/>
	<polygon class="st30" points="3783.6,282.5 3763.6,284.1 3750.2,290.3 3742.6,301.3 3732,305.3 3721.1,305.1 3720.3,300.2 
		3708.5,309.9 3696.2,329.6 3689.6,357.3 3689,388 3690.2,405.3 3692.3,410.3 3696.5,410.8 3695.7,404.4 3706.2,399.3 3742.8,394.7 
		3750.4,394.5 3770.8,352 3781.6,316.5 3783.6,290 	"/>
	<path class="st30" d="M3996.1,390.1l3.9-6l-1.1-8.2l-4.4-11.6l-8.9-16l-5.5-14.2l-9.9-17.3l-9-12.1l-11.7-11.5l-6,2.7h-6.5
		l-10.9-7.4l-3.8-3.3l-8.3-1.4l-10.5-1.1L3888,276l-5.1-3.1l-2.9,9.1l-7.6,7l-10.9,4.3l-3.1,4.9l-9.6,4.4L3845,323l-6.4,12.5
		l-13,10.6l-3.9,5.9c0,0-10.5,40.3-12,46c-1.6,5.7-13,44.9-13,44.9l-2.9,9.1l29.7,1.8l54.1-0.3h35.4l30.6,2.7l0.3-31.8l-2.5-37.5
		l28.4-5.4l24.8,1.4L3996.1,390.1z"/>
	<path class="st30" d="M3748.6,512l0.9,13.7l-4.1,20.3l1.7,9.6l-2.3,7.8l4.6,5.9l2.1-9l27.6,4.7l50.9,0.7l36.9,3.3l14.2,2.3
		l38.6-0.6l30.2,3.7l1.1,4.7c0-0.1,4.3-1.2,4.3-1.2l1.4-4l-3.4-7.9l-0.3-8.2l-6.3-33.2l-42.4-4l-42.9-10.8l-87.6-16.3l-4.5,5.4
		l-10.4,9.5L3748.6,512z"/>
	<g class="st1">
		<path class="st47" d="M1457,222.3l-67.1,21.2l-6.3-16.5c0,0-47.3-8.7-59.8-41s-10.6-34-10.6-34l2.4-30.7l4.7-12.7l14-22.9
			l22.9-14.7l27.8-8.1h18.5l28.1,6.5l17.7,11.9l16.1,22l10.2,30v27.2l-10,25.3l-12.6,16.7L1457,222.3z"/>
		<g>
			<path class="st48" d="M1456.5,220.6c-2.2,0.7-4.4,1.4-6.7,2.1c-5.3,1.7-10.7,3.4-16,5.1c-6.5,2-12.9,4.1-19.4,6.1
				c-5.6,1.8-11.2,3.5-16.8,5.3c-1.8,0.6-3.7,1.2-5.5,1.7c-0.9,0.3-1.8,0.5-2.6,0.8h-0.1c0.7,0.4,1.4,0.8,2.2,1.2
				c-2.1-5.5-4.1-11-6.3-16.5c-0.6-1.5-2.6-1.5-4-1.8c-2.6-0.6-5.2-1.3-7.7-2.1c-8.2-2.6-15.7-5.7-23.2-10.1
				c-8.5-5-16.3-11.6-21.5-20.1c-3.3-5.5-5.3-11.6-7.5-17.6c-1.7-4.8-3.4-9.5-4.8-14.4c-0.7-2.2-1.3-4.5-1.7-6.8c-0.1-0.4,0-0.3,0,0
				c0-0.1,0-0.3-0.1-0.4c0-0.2,0-0.4,0-0.6c0-0.1,0-0.3,0-0.4c0,0.1-0.1,0.6,0,0.2c0.1-0.2-0.3,0.5-0.1,0.3c0.1-0.1-0.4,0.5-0.3,0.3
				c0.3-0.4,0.5-0.8,0.5-1.3c0.1-0.7,0.1-1.4,0.2-2.2c0.3-3.6,0.6-7.2,0.8-10.8c0.3-4.1,0.6-8.2,1-12.3c0.1-1.4,0.2-2.7,0.3-4.1
				c0-0.3,0.1-0.7,0.1-1c0-0.6-0.2,0.5,0,0.1s0.4-1,0.5-1.5c0.3-0.8,0.6-1.7,0.9-2.5c0.7-2,1.5-4,2.2-6c0.2-0.7,0.5-1.3,0.7-2
				c0.1-0.2,0.1-0.3,0.2-0.5c0.1-0.3-0.2,0.4-0.1,0.3c0.2-0.1,0.3-0.5,0.4-0.7c0.3-0.4,0.6-0.9,0.8-1.4c3.9-6.4,7.9-12.8,11.8-19.2
				c0.3-0.5,0.7-1.1,1-1.6c-0.2,0.2-0.4,0.4-0.6,0.6c3.2-2.1,6.4-4.1,9.6-6.2c4.2-2.7,8.4-5.4,12.6-8.1c0.2-0.1,0.4-0.2,0.6-0.4
				c0.4-0.3,0,0.1-0.2,0.1c0.2,0.1,0.8-0.2,1-0.3c1.9-0.6,3.9-1.1,5.8-1.7c5.4-1.6,10.9-3.2,16.4-4.8c1.5-0.4,3-0.8,4.4-1.3
				c0.4-0.2-0.1,0.1-0.3,0c0.1,0.1,0.4,0,0.5,0c0.9,0,1.7,0,2.6,0c5,0,10.1,0,15.1,0c0.1,0,0.7,0.1,0.2,0s-0.1,0,0,0
				c0.6,0.2,1.1,0.3,1.7,0.4c2.3,0.5,4.5,1,6.8,1.6c5.4,1.2,10.8,2.5,16.2,3.7c0.8,0.2,1.6,0.4,2.3,0.5c0.2,0.1,0.4,0.1,0.6,0.1
				c0.5,0.1-0.2,0.1-0.2-0.1c0,0.2,0.9,0.6,1.1,0.7c0.8,0.6,1.7,1.1,2.6,1.7c4.4,2.9,8.8,5.9,13.1,8.8c0.3,0.2,0.6,0.4,0.9,0.6
				c-0.2-0.2-0.4-0.4-0.6-0.6c3.1,4.3,6.2,8.5,9.3,12.8c1.8,2.5,3.7,5,5.5,7.5c0.3,0.5,0.7,1.3,1.2,1.6c0.2,0.2-0.2-0.6-0.1-0.2
				c0.1,0.2,0.2,0.5,0.2,0.7c2,5.8,4,11.7,5.9,17.5c1,3,2,5.9,3,8.9c0.3,0.8,0.5,1.6,0.8,2.4c0,0.1,0.1,0.4,0.1,0.4
				c-0.2-0.1,0-0.7-0.1-0.2c-0.2,5.9,0,11.9,0,17.8c0,2.7,0,5.5,0,8.2c0,0.2,0,0.5,0,0.8c0.1,0.4,0.2-0.5,0-0.2
				c-0.4,0.5-0.5,1.3-0.8,1.9c-2.5,6.2-4.9,12.4-7.4,18.6c-0.4,1.1-0.9,2.3-1.3,3.4c-0.1,0.3-0.2,0.6-0.4,0.9
				c-0.2,0.6,0-0.1,0.1-0.1c-0.1,0-0.3,0.4-0.3,0.5c-0.3,0.4-0.6,0.7-0.8,1.1c-0.9,1.2-1.8,2.4-2.7,3.6c-2.1,2.8-4.3,5.7-6.4,8.5
				c-0.7,0.9-1.3,1.8-2,2.6c-0.5,0.6-0.5,1.3-0.4,2.1c1.2,6,2.4,11.9,3.6,17.9c0.1,0.6,0.2,1.1,0.3,1.7c0.2,0.9,1.3,1.5,2.2,1.2
				c1-0.3,1.4-1.2,1.2-2.1c-1.2-5.8-2.3-11.6-3.5-17.5c-0.2-0.8-0.3-1.6-0.5-2.4c-0.1,0.4-0.1,0.9-0.2,1.4c3.7-4.9,7.3-9.7,11-14.5
				c0.5-0.7,1.1-1.4,1.6-2.1c0.3-0.4,0.4-1,0.6-1.5c1.1-2.9,2.3-5.7,3.4-8.6c1.4-3.6,2.8-7.2,4.3-10.8c0.5-1.2,1-2.4,1.4-3.6
				c0.2-0.6,0.5-1.1,0.5-1.7c0.1-2,0-4.1,0-6.2c0-3.9,0-7.9,0-11.8c0-2.9,0-5.7,0-8.6c0-1.2-0.4-2.3-0.8-3.5
				c-2.3-6.8-4.6-13.7-7-20.5c-0.8-2.3-1.6-4.6-2.3-6.9c-0.4-1.3-1.4-2.3-2.2-3.4c-4.2-5.8-8.4-11.6-12.7-17.3
				c-0.5-0.6-0.9-1.3-1.4-1.9c-0.4-0.6-0.9-0.9-1.5-1.3c-2.8-1.9-5.5-3.7-8.3-5.6c-2.7-1.8-5.3-3.6-8-5.3c-1.1-0.8-2.5-0.9-3.8-1.2
				c-7-1.6-14.1-3.3-21.1-4.9c-1.5-0.3-3.2-0.9-4.7-1c-3-0.1-6,0-8.9,0c-3.1,0-6.1-0.1-9.2,0c-1.5,0-3.1,0.7-4.5,1.2
				c-7,2-13.9,4.1-20.9,6.1c-1.3,0.4-2.8,0.6-3.9,1.3c-2.2,1.4-4.5,2.9-6.7,4.3c-5.3,3.4-10.6,6.6-15.8,10.2
				c-0.6,0.4-0.8,0.8-1.2,1.4c-0.6,1-1.2,2-1.9,3c-2,3.2-3.9,6.4-5.9,9.6c-1.7,2.8-3.4,5.5-5.1,8.3c-0.9,1.5-1.4,2.9-2,4.6
				c-1.2,3.2-2.4,6.3-3.5,9.5c-0.5,1.4-0.4,3.1-0.5,4.5c-0.6,7.3-1.1,14.7-1.7,22c-0.1,1.6-0.2,3.3-0.4,4.9c0.2-0.4,0.3-0.8,0.5-1.2
				c-0.5,0.5-0.6,1.3-0.6,2c0,1.6,0.5,3.3,0.9,4.9c0.9,3.8,2.2,7.4,3.4,11.1c1.1,3.1,2.1,6.1,3.3,9.2c1.3,3.6,2.6,7.2,4.1,10.7
				c4.3,9.8,12,17.7,20.7,23.7c7.7,5.4,16.4,9.4,25.2,12.4c3.1,1.1,6.2,2,9.3,2.8c1.5,0.4,3.1,0.9,4.7,1.1c0.1,0,0.1,0,0.2,0
				c-0.4-0.4-0.8-0.8-1.2-1.2c1.8,4.8,3.7,9.6,5.5,14.4c0.3,0.7,0.5,1.4,0.8,2.1c0.3,0.9,1.2,1.5,2.2,1.2c2.2-0.7,4.4-1.4,6.7-2.1
				c5.3-1.7,10.7-3.4,16-5.1c6.5-2,12.9-4.1,19.4-6.1c5.6-1.8,11.2-3.5,16.8-5.3c2.7-0.9,5.4-1.6,8.1-2.6h0.1
				C1459.6,223.3,1458.7,219.9,1456.5,220.6z"/>
		</g>
	</g>
	<g class="st1">
		<polygon class="st49" points="1453.1,230.8 1398.5,246.9 1393.3,252 1391.4,260 1396.1,264.7 1403,263.5 1412.5,270.8 
			1420.7,281.7 1432.8,281.1 1452,272.4 1455.9,262.4 1457,248.4 1462.7,242.6 1462.2,233 1457.8,229.8 		"/>
		<g>
			<path class="st48" d="M1452.6,229.1c-1.1,0.3-2.2,0.6-3.3,1c-2.8,0.8-5.6,1.7-8.4,2.5c-3.8,1.1-7.6,2.2-11.4,3.4
				c-4,1.2-8.1,2.4-12.1,3.6c-3.6,1.1-7.1,2.1-10.7,3.2c-2.4,0.7-4.7,1.4-7.1,2.1c-0.5,0.1-1,0.3-1.5,0.4c-0.9,0.3-1.6,1.2-2.3,1.9
				c-1.2,1.2-2.5,2.4-3.7,3.6c-0.4,0.5-0.5,0.9-0.7,1.5c-0.2,0.9-0.4,1.7-0.6,2.6c-0.4,1.6-0.8,3.2-1.2,4.7c-0.2,1,0.3,1.6,0.9,2.2
				c0.7,0.6,1.3,1.3,2,2c0.6,0.6,1.3,1.3,1.9,1.9c0.1,0.1,0.2,0.2,0.4,0.4c0.6,0.5,1.2,0.5,1.9,0.4c1.7-0.3,3.5-0.6,5.2-0.9
				c0.5-0.1,1-0.2,1.5-0.3c-0.4-0.1-0.9-0.1-1.3-0.2c2.8,2.1,5.6,4.2,8.4,6.4c0.4,0.3,0.8,0.6,1.2,0.9c-0.2-0.2-0.4-0.4-0.6-0.6
				c1.4,1.9,2.9,3.9,4.3,5.8c0.9,1.3,1.9,2.5,2.8,3.8c0.6,0.9,1.4,2.2,2.5,2.2c0.9,0,1.8-0.1,2.7-0.1c1.7-0.1,3.4-0.2,5.2-0.2
				c1.3-0.1,2.6-0.1,3.8-0.2c0.7,0,1.2-0.2,1.8-0.5c5.3-2.4,10.7-4.9,16-7.3c0.8-0.4,1.6-0.7,2.4-1.1s1.1-1.2,1.4-2
				c1.1-2.8,2.2-5.6,3.3-8.4c0.2-0.6,0.3-1.1,0.4-1.7c0.1-1.3,0.2-2.6,0.3-3.9c0.2-3,0.5-6,0.7-9c0-0.2,0-0.4,0.1-0.6
				c-0.2,0.4-0.3,0.8-0.5,1.2c1.5-1.5,2.9-3,4.4-4.5c0.7-0.7,1.8-1.5,1.8-2.5c0-0.7-0.1-1.4-0.1-2.1c-0.1-2.4-0.2-4.8-0.3-7.1
				c0-0.8-0.2-1.4-0.9-1.9c-0.2-0.2-0.5-0.4-0.7-0.5c-1.1-0.8-2.1-1.5-3.1-2.2c-0.6-0.4-1.1-0.7-1.9-0.6c-0.4,0.1-0.8,0.2-1.2,0.2
				C1454.9,228.6,1453.8,228.8,1452.6,229.1c-0.9,0.2-1.5,1.3-1.2,2.1c0.3,1,1.2,1.4,2.2,1.2c1.6-0.3,3.1-0.6,4.7-0.9
				c-0.4-0.1-0.9-0.1-1.3-0.2c1.5,1.1,3,2.1,4.5,3.2c-0.3-0.5-0.6-1-0.9-1.5c0.1,3.2,0.3,6.4,0.4,9.6c0.2-0.4,0.3-0.8,0.5-1.2
				c-1.7,1.7-3.4,3.5-5.1,5.2c-0.2,0.2-0.4,0.4-0.6,0.6c-0.4,0.5-0.5,1-0.5,1.6c-0.1,1-0.2,2.1-0.2,3.1c-0.2,3-0.5,5.9-0.7,8.9
				c0,0.4-0.1,0.9-0.1,1.3c0,0.1,0,0.2,0,0.3c0,0.3,0-0.3,0.1-0.4c-0.2,0.2-0.2,0.6-0.3,0.8c-0.2,0.5-0.4,1.1-0.7,1.6
				c-1,2.5-2,5-2.9,7.5c0.3-0.4,0.5-0.7,0.8-1c-5.6,2.6-11.2,5.1-16.8,7.7c-0.8,0.4-1.6,0.7-2.4,1.1c0.3-0.1,0.6-0.2,0.9-0.2
				c-3.5,0.2-7.1,0.3-10.6,0.5c-0.5,0-1,0-1.5,0.1c0.5,0.3,1,0.6,1.5,0.9c-2.7-3.6-5.4-7.3-8.1-10.9c-0.4-0.6-1.1-1-1.6-1.4
				c-1.1-0.8-2.2-1.7-3.3-2.5c-1.2-0.9-2.4-1.8-3.6-2.8c-0.6-0.4-1.1-0.9-1.7-1.3s-1.5-0.2-2.2,0c-0.8,0.1-1.6,0.3-2.4,0.4
				c-1.2,0.2-2.4,0.4-3.7,0.6c0.6,0.1,1.1,0.3,1.7,0.5c-1.6-1.6-3.2-3.1-4.7-4.7c0.2,0.6,0.3,1.1,0.4,1.7c0.7-2.7,1.3-5.4,1.9-8.1
				c-0.2,0.3-0.3,0.5-0.4,0.8c1.7-1.7,3.4-3.4,5.2-5.1c-0.3,0.1-0.5,0.3-0.8,0.4c1.8-0.5,3.6-1.1,5.4-1.6c4.3-1.3,8.7-2.6,13-3.9
				c5.3-1.6,10.5-3.1,15.8-4.7c4.6-1.3,9.1-2.7,13.6-4c2.2-0.6,4.4-1.2,6.6-2h0.1c0.9-0.3,1.5-1.2,1.2-2.1
				C1454.5,229.4,1453.5,228.8,1452.6,229.1z"/>
		</g>
	</g>
</g>
<g>
	<path class="st50" d="M225.5,383.4c7.8,5.6,18.2,2.1,25.4,4.8c5.9,2.2,7,3.9,11.6,3.8c6.8-2.2,12-8.3,13.3-14.7
		c12.3-59.7,13.7-136.3,3.6-176.6c-10.2-36.6-49.2-73.6-93.4-58.5"/>
	<path class="st50" d="M153.9,259.9c0.3-1.6,0.8-4,1.5-6.7c1.5-5.5,3.2-9.4,5.9-15.4c3-6.4,5.6-12,7.9-16.8
		c3-3.4,10.8-11.1,22.8-13.2c3.7-0.7,7.1-0.7,9.9-0.4c1.7,0.4,3.5,0.9,5.4,1.3c4.5,0.9,15.4,5.6,18.9,5.6"/>
	<path class="st50" d="M184.6,336.9c9.2,1.9,16.8,1.8,21.8,1.2c5.4-0.6,10.9-2.2,18-5.2c1.4-0.6,4.5-3.6,5.7-4.6
		c1.5-1.2,2.5-2.8,3.5-4.4c3.7-5.9,7.5-11.8,10.5-18.1c10.9-22.5,15.9-44.1,16.5-69.1c-0.6-1.5-1.6-3.7-3.3-6
		c-2.1-3-4.2-4.7-6.5-6.6c-3.1-2.6-3.4-2.2-7.4-5.2c-6.7-4.9-8-7.1-10.6-6.7c-1.5,0.3-2.4,1.2-5,1.4c-1.4,0.1-2.5,0-3.3-0.1"/>
	<path class="st50" d="M226.1,213.1c-2.1,2.1,2.8,0.6,1.9,0.5c-4.2-0.5-15.8-22.1-20.6-37c0,0-3.4-7.8-8.8-16.9
		c-1.6-2.8-3.7-4.7-4-5c-0.4-0.5-0.9-0.8-2.1-1.8c-3.6-2.9-2.3-12.6-15.4-13.6"/>
	<path class="st50" d="M169.9,241.2c-0.4,0.8,0.3,1.8,1,2.2c1,0.6,2.2,0.6,3.4,0.6c9.9-0.1,18.3,0.1,28.2,0c1,0,2.5-0.7,3.4-1.2
		s1.6-1.5,1.5-2.6c-0.1-1-1-1.8-1.8-2.3c-3.1-2.1-5.9-2.5-9.5-2.8c-3.7-0.3-7.4,0.1-11,0.6c-4.4,0.6-8.7,1.4-12.8,3.2
		c-1.2,0.6-2.5,1.2-3.4,2.4"/>
	<path class="st50" d="M205,257.9c-0.7-1.9-2.2-3.5-3.9-4.9c-1.1-0.8-2.3-1.6-3.6-2.1c-3.1-1.2-6.6-0.9-9.9-0.5
		c-5.5,0.8-11.5,2.1-14.9,6.2"/>
	<path class="st50" d="M193.9,252c-3.9-0.3-6.2,1.6-6.2,1.6c-1.9,1.5-2.2,3.6-2.2,5c0,2,0.2,4,1.4,5.7c1.3,1.7,3.7,3.1,6.3,3
		c2.2-0.1,4.1-1.2,5.2-2.6s1.3-3.1,1.2-4.7c0,0-0.1-4.2-3.1-6.9c-0.3-0.2-1-0.9-2.1-1.1C194.4,252,194.2,251.9,193.9,252z"/>
	<path class="st50" d="M259.4,260.3c-3-1.5-6.2-3-9.9-3.6c-2.8-0.4-5.7-0.3-8.4,0.3c-1.1,0.2-2.1,0.5-2.8,1.1s-4.4,3.1-4,3.8"/>
	<path class="st50" d="M248.5,257.3c-2.8-0.5-6.1-0.4-8.1,1.3c-1.6,1.3-2,3.3-2,5.2c0,2.4,0.3,4.8,2,6.7c1.8,1.9,5.3,2.9,7.8,1.6
		c1.2-0.6,2.1-1.6,2.6-2.7c2.4-4.5,0.6-10-4.1-13"/>
	<path class="st50" d="M195.9,267.9c-2.9,0.1-5.8,0.1-8.7-0.4c-4.2-0.7-7.9-2.7-11-5.1"/>
	<path class="st50" d="M174.9,263.9c1-0.5,2.1-0.9,3.2-1.2"/>
	<path class="st50" d="M239.6,272.2c1.6,0.6,5.3,1.5,7,1.8c2.3,0.3,4.3-0.2,6.5-0.4"/>
	<path class="st50" d="M194.9,300.1c-1.9-0.6-3.8,0.8-4.3,2.6c-0.4,1.6,0.4,3.3,1.4,4.8c3.7,5.5,10.7,9.4,18.1,10s14.9-2.1,19.6-7
		c0.5-0.6,1-1.1,1.2-1.8c0.4-1.5-1-3-2.6-3.7s-3.5-0.7-5.3-0.7C212.5,304.1,204.7,303.6,194.9,300.1"/>
	<path class="st50" d="M242.3,243.8c-1.6,0-2.8,1.5-2.6,2.9c0.3,1.3,1.5,2.4,3,3.1s3.1,1,4.6,1.6c2.5,0.9,4.6,2.3,7.1,3.2
		c1.3,0.5,3,0.9,4.3,0.3c0.9-0.4,1.5-1.3,1.8-2.1c0.3-0.9,0.5-1.8,0.3-2.7c-0.3-1.1-1.4-2.1-2.5-2.9c-1-0.7-2-1.4-3-2.1
		c-0.8-0.6-1.7-1.1-2.8-1.4c-0.8-0.2-1.6-0.2-2.4-0.2c-2.9-0.1-6.1-0.1-8.6,1.2"/>
	<path class="st50" d="M219.5,290.8c3-0.5,6-1.1,9-1.6c0.2,0,0.4-0.1,0.5-0.3c0.1-0.1,0-0.3,0-0.4c-1.6-4.1-3.2-8.2-4.8-12.3"/>
	<path class="st50" d="M181.2,361.3c-0.1-11.3,0.6-13.3,4.3-24.1"/>
	<path class="st50" d="M188.1,337.2c-15.4-3.9-29.9-11.7-41.4-22.8"/>
	<path class="st50" d="M183.4,140.4c-5.5-1.4-13.9-2.8-24.1-2c-1,0.1-14.2,1.2-27.8,8c-24.2,12.1-37.5,35.6-45,49.1
		c-15.6,28.4-20.4,56.1-21.7,75.9c0,0-3.9,28.6-10.1,55.5c-1.3,6-3.5,12.6-4.4,15.3c-0.4,1.1-0.8,2.3-1.4,3.8
		c-1.7,4.1-2.9,5.4-3.7,7.3c-1.5,3.6-0.3,7.1,0.9,11c2.1,6.3,6,10.6,8.5,12.8c3.9,2,7.7,2,11.6,2c7.7,5.9,17.3,11.8,27,11.8
		c11.6-2,27-9.9,38.6-2c5.8,2,13.5-3.9,13.5-9.8c0-43.3,0-88.6,11.3-132.1"/>
	<path class="st51" d="M193.3,258.7c-0.2-0.2-0.3-0.1-0.9-0.3c-0.9-0.3-1.1-0.7-1.4-0.6c-0.5,0.4-0.4,1.2-0.2,1.8
		c0.3,0.9,0.9,1.8,1.7,2.2s2,0.3,2.5-0.5c0.5-0.6,0.4-1.4,0.2-2.2c-0.1-0.5-0.2-0.9-0.6-1.3c-0.7-0.6-1.9-0.4-2.7-0.3
		c-0.5,0.1-0.8,0.2-1,0.4c-0.5,0.5-0.3,1.2,0,1.8c0.1,0.2,0.5,1.4,1.2,1.4C192.9,261.1,193.6,259.3,193.3,258.7z"/>
	<path class="st51" d="M246.1,264c-0.4,0.1,0.4-0.1,0.2,0c-0.4,0.2-0.9,0.5-1.4,0.7c-0.2,0.1-0.3,0.1-0.4,0.3
		c-0.1,0.3,0,0.6,0.2,0.9c0.4,0.6,0.8,1.2,1.4,1.6c0.3,0.2,0.8,0.3,1,0c0.1-0.2,0.1-0.5,0.1-0.7c-0.1-1-0.4-2-0.9-2.8
		c-0.2-0.3-0.4-0.5-0.6-0.7c-0.4-0.3-1-0.3-1.5-0.2s-1.1,0.2-1.4,0.7c-0.3,0.4-0.1,1.1,0.1,1.6c0.4,0.9,0.9,2,1.8,2.3
		c0.5,0.1,1.1,0.1,1.6,0c0.4-0.1,0.8-0.1,1-0.4c0.2-0.4,0.2-0.9,0.1-1.3c-0.2-0.9-0.7-1.8-1.5-2.1c-0.8-0.4-1.9,0-2.1,0.9
		c-0.1,0.4,0,0.9,0.1,1.3c0,0.4,0.2,0.7,0.4,0.9c0.4,0.3,0.9,0.2,1.4,0.1c0.3-0.1,0.6-0.1,0.8-0.2c0.1-0.1,0.2-0.1,0.3-0.2
		s0-0.3,0-0.4c-0.1-0.8,0.1-1.1-0.1-1.8c-0.4-0.9-1.1-1.4-1.5-1.6"/>
	<path class="st50" d="M242.6,402.3c-5.7-9-18.6-20.8-23.2-23.9c-2.2-1.4-1.8-0.9-15.4-8.9c-7.3-4.3-9.6-5.7-12.5-7.8
		c-4.8-3.5-7.5-5.1-9.9-7.5"/>
	<path class="st50" d="M145.5,364.1c7.7,3.2,15.9,5.6,24.2,5.6c8.4,0,15.9-1.8,21.9-7.6"/>
	<path class="st50" d="M249.4,569.6c-6.2-12-7-17.5-9.3-30.7"/>
	<path class="st50" d="M234.9,467.1c-0.4-24.9,0.1-50.3-2.4-74.8"/>
	<path class="st50" d="M260.9,465.1c-3-6.9-4.6-11.9-6.9-19.1"/>
	<path class="st50" d="M259.1,560.7c-8.8-4.7-13.5-9.4-18.3-17.9"/>
	<path class="st50" d="M84.9,461.5c2.1-1.3,6.9-3.7,6.9-6.1c-2.5-16.9,4.8-29,11.5-40.2"/>
	<path class="st50" d="M24.2,440c-1.5-3.8-2-6.9-1.7-8.9c1-5.7,4.5-13.9,5.6-19.5c0.5-3,1.1-6,2.2-8.9c1.2-3.1,3-6.1,4.8-9
		c2.9-4.6,4.2-7,5.4-8.7c3.6-5.2,7.2-8.5,10.6-11.6"/>
	<path class="st50" d="M87.8,455c-3.5-6.4-7.2-13.1-13.2-17.3c-9.2-6.4-21.4-5.5-32.5-4.5c-5.5,0.5-11.5,1.3-15.3,5.3"/>
	<path class="st50" d="M26.2,444.1c-0.5-1.3-0.8-2.9-1.9-3.8"/>
	<path class="st50" d="M104.1,446.3"/>
	<path class="st50" d="M106.6,418.7c-1.1-1.5-2.5-2.7-4.1-3.7"/>
	<path class="st50" d="M223.9,506.6c-49.8,18.2-94.6,29.5-107.8,32.4c-2.1,0.5-11.9,2-22.9,5c-8,2.1-12,3.6-16.9,3.8
		c-7.8,0.2-15.7,0.5-23.4-1.8c-7.6-2.3-15.1-7.5-19.4-16c-3.5-6.9-3-26-3.9-34.2c-2.1-20.3-3.3-35.6-3.1-56.1"/>
	<path class="st50" d="M85.7,493c-1.9-11.2-2.4-32.6-2.1-44.9"/>
	<path class="st50" d="M93.1,597.2c-1.5,0.7-1.6-0.1-2.4-1.5s-0.9-3.1-0.9-4.7c-0.3-16.1-0.2-30.2,1.2-46.2"/>
	<path class="st50" d="M244.8,569.6c-13.3-1.3-26.6-2.2-39.9-1.4c-15.5,0.9-30.7,4.2-45.9,7.4c-6.1,1.3-12.2,2.6-18.3,3.9
		c-17.2,3.7-34.7,7.5-49.5,16.8"/>
	<path class="st50" d="M243.4,569.6c1.5-0.4,2.6,2,4.1,1.9c1.1-0.1,1.9-1.9,1.8-2.5c-0.2-1.1-0.9-2.1-1.6-3"/>
	<path class="st50" d="M468.4,547.5c2.9-10.1-4.7-18.6-9.5-21c-33.8-21.8-67.6-36.3-106.2-43.5c-26.6-2.4-50.7,9.7-65.2,31.4
		c-19.3,29-38.6,55.6-39.5,90.2"/>
	<path class="st50" d="M451.9,556.7c-0.6-7.9,2.6-11.3-1-18.4s-11.1-12.8-19-11.9c-4,0.5-11.6,0.3-15.1,2.3
		c-5.3,3.1-10.7,6.2-15,10.6c-6.9,6.9-14.9,15.3-16.2,25s-3.2,20.5-1.6,30.2c1.7,10.4,16.3,19,23.9,26.4"/>
	<path class="st50" d="M410.7,624.9c-6.1-0.6-10.9-1.5-16.9-2.8c-2.9-0.6-5.8-1.3-8.6-2.5c-15-6.4-18.7-14.5-23-17.5
		c-9.1-6.3-20.3-8.8-31.3-9s-22,1.7-32.8,3.6c-16.7,2.9-33.5,5.9-50.2,8.8"/>
	<path class="st50" d="M445.8,562.2c-14-7.2-26.7-17.6-38.8-27.5"/>
	<path class="st50" d="M410.6,613.3c-10.1-6.4-16-11.3-26-17.9"/>
	<path class="st50" d="M510.8,564.5c-2-11.2-20.6-17.7-30.4-18.5c-23.8-2-41.3,24.7-53.5,41.4c-7.7,10.6-18.7,21-16.6,35.3
		c1.5,10.4,7.3,24.9,14.8,32.3"/>
	<path class="st50" d="M424.5,649.9c0.7,5.9,0.1,4.7,2.5,10c2.6,5.7,9.7,8.9,15.1,10.5c2,0.6,4.1,0.2,6.1-0.2
		c23.6-5.1,34.4-14.4,48.4-35.8c3.9-5.9,7.6-11.9,10.3-18.6c4.8-11.7,10.1-26.2,7.7-39c-1.2-6.3-3.5-12.7-7.7-17.2
		c-6.3-6.7-16-8.1-24.2-5.5s-15.1,8.5-21.2,15c-10.6,11.1-20.3,23.9-26.1,38.6c-7.1,18-13.9,28.9-9.9,48.6"/>
	<path class="st50" d="M249,605.3c-4.1,0.9-14.6,2.4-18.7,3.4c-20.4,5-40,12.4-58.1,21.7"/>
	<path class="st50" d="M389.9,294.5c-17.8-0.9-35.2-3-35.2-3c-30.6-1.7-39.5-4.6-46,1.9c-4,3.9-5.7,9.9-5.7,11.7
		c-0.1,21.1-7.3,79-18.8,160.3c57.7,2.5,115.5,5,173.3,7.5c1.6-9.6,2.7-17.4,3.5-23.2c0.8-5.5,1.4-11.1,1.8-13.9
		c0.6-4.5,1.1-8.6,1.5-12.2c1.3-10.7,2.2-18.8,2.2-19c1-8.2,4.3-30.8,13.8-89.4c0-1.3-0.4-5.6-3.7-9.4c-3.5-4-8.6-4.8-11-5.1
		C438.8,297,390,294.5,389.9,294.5z"/>
	<path class="st50" d="M285,466.6c0.1-0.6,0.2-1.1,0.2-1.4c26.5,1.9,48,2.9,63,3.4c18.1,0.7,61.5,2.1,74,2.5
		c17.9,0.7,17.9,0.8,21.3,0.8c3.2,0,6.3,0.6,9.4,0.3c2-0.3,3.4-0.5,4.3,0.3c1.6,1.4,0.6,5.1-0.2,7.2c-8-0.3-20-0.7-34.6-1.3
		c-25-1.1-29.1-1.5-39.8-2.1c-5.6-0.3-9.9-0.5-12.1-0.6c-6.3-0.3-23.2-1-40.7-1.7c-10.5-0.5-25.5-1.1-44.1-1.9c-0.1,0-0.2,0-0.3-0.1
		c0,0-0.1,0-0.2-0.1C284.7,471.5,284.4,470.6,285,466.6z"/>
	<path class="st50" d="M282.7,467.1c-6.7-1.8-11-2-18-2c-3.7,0-7.3,0.1-11,0.1c-3,0-15.6,0.9-18.1,2.7"/>
	<path class="st50" d="M220.1,315c-0.4-5.1-4.5-9.8-9.4-11.3"/>
	<path class="st50" d="M415.4,503.6c5.5-3.1,10.9-6.3,16.4-9.5c8.8-5.2,17.3-10.4,25.6-15.6"/>
	<path class="st50" d="M95.5,652.5c-4.9-19.7-3.6-40.1-1.8-59.5"/>
	<path class="st50" d="M58.9,547.4c30.1,75.5,47.3,144.4,76.7,220.2c101.7-17.4,177.6-21.3,229.2-21.4c29.8-0.1,33.3,1.2,55.5,0
		c38.5-2,132.6-11.2,169-4.8c7.1,1.3,16.7,4,23.1,12c3,3.8,5.1,8.5,6.1,14.5"/>
	<path class="st50" d="M571.6,807.6c-2.2,0.1-5.9,0.4-10.6,0.8c-68.2,5.3-97.5,4-165.6,9.5c-14.4,1.2-42,2.6-56.9,4.1
		c-30.2,3.1-53.3,3.6-83.7,3.7c-54.5,0.2-124.1,11.6-132.2,13c-23.7,4.1-42.4,8.4-56-2.7c-11.6-9.4-13.3-24.9-14.1-31.5
		C41.5,713.6,15,625.1,3.4,534.3c-0.1-0.4-2.9-22.8-0.9-52.6c1.6-23.3,5-33.2,7.3-38.2c0.5-1,1-1.9,1-1.9
		c4.5-8.8,10.1-14.2,13.2-17.3"/>
	<path class="st50" d="M290.9,416.1c-15-2.4-27.9-5-43-6.2"/>
	<path class="st50" d="M573.8,823.2c-64.9,8.9-130.2,15.8-195.7,17.6"/>
	<path class="st50" d="M372.7,841c-58.3,2.6-116.8,5.8-174.9,9.7"/>
	<path class="st50" d="M52.7,805.9c-11.9,53-17,81.5-19.5,97.9c-0.6,3.9-3.6,24.7-8.3,53c-0.7,4.4-1.5,8.7-2.2,13
		c4.5,0.1,9,0.1,13.5,0.1c0.6-0.2,1.1-0.4,1.6-0.6c1.9-6.8,3.8-13.5,5.6-20.2c7.3-33.8,13.9-63,20.9-93.7l0,0
		c39,0.9,67.6-1.2,106.5-3.6"/>
	<path class="st50" d="M652.7,1016.8c-15.1-72.5-39.2-142.5-56.1-214.8"/>
	<path class="st50" d="M652.7,1016.2c-9.4,0.2-18.8,0.4-28.2,0.6c-5.9-32.9-13.7-70.8-24-108.2c-8.6-31.2-17.9-60.3-27.5-87.2"/>
	<path class="st50" d="M358.5,841.9c1.3,34.2,2.7,67.4,4,101.6c4.4,0.1,8.9,0.3,13.3,0.4c1-16.7,1.8-33.8,2.3-51.1
		c0.5-17.8,0.9-34.4,0.9-51.6"/>
	<path class="st50" d="M367.3,841.9c-55.6,2.4-113.6,5.9-169.5,7.7"/>
	<path class="st50" d="M380.8,840.8c-5.8,0.4-11.5,0.8-17.3,1.3"/>
	<path class="st50" d="M173.4,1048.3c0,0,0.2-19.1-0.2-30.9c-1.9-62.1-1.7-123.5-2.3-185.6"/>
	<path class="st50" d="M196.8,829.4c0.2,60.9,0.2,120.8,0,181.7c-0.1,12.6-0.1,25.2-0.2,37.8c-7.8-0.2-15.5-0.5-23.3-0.7"/>
	<path class="st50" d="M573.8,822.9c-2.6-4.7-5.1-9.5-7.6-14.3"/>
	<path class="st50" d="M571.9,807.7c23-1.8,50.9-10.9,46.2-44"/>
	<path class="st50" d="M540.6,698.5c-0.6,3.7-1.4,7.9-2.1,10c-0.8,2.6-1.3,3.3-1.9,3.9c-2.3,2.2-5.8,1.9-7.6,1.8
		c-3.5-0.2-3.9-1.4-7.9-1.9c-2.8-0.3-3.6,0.1-6.3,0c-3.2-0.2-5.7-0.9-10-2.4c-11.2-4-14.6-6.6-23.1-9.2c0,0-3.1-1-7.8-2
		c-40.4-8.9-105.1-3.9-105.1-3.9c-54.6,4.2-47.6-0.7-91.1,3.2c-29.4,2.6-68.7,5.7-113.8,17.4c-13.8,3.6-28.1,8-43,12.8"/>
	<path class="st50" d="M271.4,538.4c-23.9-0.1-49.8,1.2-73.7,1.2c-3.2,0-10.6,1.1-13.6,0c-2.1-0.7-2.9-3-3-5.4c-0.1-2,3.4-4.2,5-5.3
		c4.3-2.7,9.5-5.1,13.8-7.7c8.4-5.2,17.1-10.1,21.1-12.4c7.5-4.3,10.6-6,16.6-9.7c5.6-3.6,9.4-6.4,11.2-7.4
		c6.9-3.8,20.2-10.4,35.5-21.4"/>
	<path class="st50" d="M557,640.9c0.1-3.8,2.1-10,3-13.8c1.3-5,1-10.5-1.2-15.3s-6.4-8.6-11.5-10c-2.2-0.6-4.4-0.7-6.6-0.9
		c-9.9-0.7-17.7-1.5-27.6-2.9"/>
	<path class="st50" d="M532.7,709.3c-3.4-2.2-4.4-6.7-4.4-10.7c0-7.8,2.6-15.4,3.5-23.2c0.3-2.5,0.4-5,0.7-7.5c0.4-3.7,1.1-7.3,2-11
		c3.7-15.5,9.1-30.4,14.6-45.3c0.2-0.7,0.7-1.5,1.4-1.5c0.4,0,0.7,0.2,1,0.4c1.5,1,3.1,2.1,4.7,3.1"/>
	<path class="st50" d="M363.8,592.3c-3.2-14.7-1.9-30.5,3.9-44.5c1.1-2.7,2.3-5.2,3.8-7.7c2.8-4.7,6.3-8.9,9.9-12.9
		c3.8-4.3,7.8-8.5,12.9-11.1c5.2-2.7,11.1-3.6,16.8-4.4"/>
	<path class="st50" d="M506.8,698.4c-1.1-4.2-2.2-10.4-2.5-17.8c-0.3-8.6,0.9-14.8,2.8-25c2.9-15.1,4.3-22.7,9.2-31
		c4.1-6.9,8.8-11.7,12.1-14.6"/>
	<path class="st50" d="M598.9,648.4c-14.7-0.3-33.5-5.1-47.7-9.1c-4.1-1.2-7.3-2-10.5-5"/>
	<path class="st50" d="M560.7,703.7c-2.1-0.1-4-0.9-6-1.6c-9.5-3.5-16.3-5.6-26.4-6.5"/>
	<path class="st50" d="M592.1,731.2c-5.7-3.6-14.5-9-20.3-12.5c-2.4-1.4-4.8-2.9-6.7-4.9s-3.1-4.6-3.5-7.4c-0.6-4.5,0.6-7.4,1.6-9.7
		"/>
	<path class="st50" d="M658,618.3c-7.3-5.4-18.6-4.2-26.7-0.1c-8.1,4.1-18.8,14.2-24.7,21.1c-10.1,11.9-19.9,24.1-28.2,37.3
		c-2.6,4.1-6.9,7.4-9.3,11.6c-3.7,6.5-7.6,7.9-7.4,15.4"/>
	<path class="st50" d="M601.5,645.4c0.1-26.5,4.4-50.6-22.3-65.8c-20.4-11.6-44.9-10.5-67.5-13.2"/>
	<path class="st50" d="M593.9,733.1c3.4,2.7,8.1,1.2,10.3,0.5c1.2-0.4,4.7-1.5,7.8-4.8c2.3-2.5,3.7-6.5,6.6-14.7
		c1.8-5.1,2.3-6.7,2.3-6.7c0.4-1.6,1.2-4,2.3-6.8c1.3-3.2,2.5-5.5,3.5-7.2c11.2-19.8,17.1-29.5,17.4-29.9c12.5-19,20.7-25.2,20.2-34
		c-0.1-2.1-0.6-7.9-4.4-10.4c-0.9-0.7-2-0.9-2.7-0.9l0,0c0,0-0.7-0.1-1.5,0.1c-2.9,0.6-9.8,11.7-9.8,11.7c-1.4,2.2-3.5,5.2-6.4,8.7
		c-4.5,6.9-8.1,12.6-10.4,16.5c-5.8,9.6-6.2,11.3-13.3,23.9c-9.6,16.9-14.4,25.4-15.8,27.2c0,0-3.7,4.7-7.1,12.8
		c-1.8,4.1-2.8,7.8-1.3,11C592.4,731.7,593.5,732.7,593.9,733.1z"/>
	<path class="st50" d="M602.6,745.4c-1.4-3.3-2.4-6.9-3-10.5"/>
	<path class="st52" d="M380.4,366.8c-0.2,0.5-0.3,0.9-0.5,1.3c-3.2,8.8-6.4,17.5-9.6,26.3c-0.6,1.6-1.2,3.3-1.8,4.9
		c-0.1,0.3-0.1,0.3,0.2,0.3c1.5,0,3,0,4.4,0c0.2,0,0.2,0,0.3-0.2c2-5.6,4.1-11.3,6.1-16.9c0.1-0.2,0.1-0.3,0.4-0.3
		c1.1,0,2.1,0,3.2,0c0.2,0,0.2,0,0.2,0.2c-2,5.6-4.1,11.2-6.1,16.9c0,0,0,0.1-0.1,0.1c0,0.1,0,0.1,0.1,0.1c1.5,0,3.1,0,4.6,0
		c0.2,0,0.2-0.1,0.2-0.2c0.7-1.9,1.4-3.7,2-5.6c1.2-3.4,2.5-6.9,3.8-10.3c0.3-0.8,0.4-1.6,0.2-2.4c-0.4-1.1-1.2-1.7-2.4-1.9
		c-0.3,0-0.6,0-0.9,0c-1.2,0-2.5,0-3.7,0c-0.2,0-0.2,0-0.1-0.2c1.5-4.2,3.1-8.5,4.6-12.8c0.1-0.2,0.2-0.2,0.3-0.2
		c1.4,0,2.9,0,4.3,0.2c2.5,0.4,5,1.1,7.2,2.4c6.2,3.4,10.3,8.5,12,15.3c0.4,1.4,0.5,2.9,0.6,4.3c0.2,4.1-0.6,8-2.5,11.7
		c-2.1,4.1-5.1,7.2-9,9.6c-2.5,1.5-5.3,2.5-8.2,2.9c-1.4,0.2-2.8,0.3-4.1,0.3c-0.2,0-0.2,0-0.2-0.2c0.8-2.2,1.6-4.5,2.4-6.7
		c0.7-2,1.5-4,2.2-6c0.1-0.2,0.1-0.2,0.3-0.2c2,0,4.1,0,6.1,0c1.4,0,2.6-0.8,3.1-2.2c1.7-4.7,3.4-9.3,5.1-14
		c0.2-0.7,0.4-1.4,0.2-2.1c-0.3-1.1-1.1-1.8-2.2-2.1c-0.3-0.1-0.7-0.1-1-0.1c-2.9,0-5.9,0-8.8,0c-0.2,0-0.3,0.1-0.4,0.3
		c-1.5,4.1-3,8.2-4.5,12.3c-2.3,6.4-4.7,12.8-7,19.2c-0.1,0.3-0.2,0.6-0.4,1c0,0.2-0.1,0.2-0.3,0.1c-2.2-0.6-4.3-1.4-6.2-2.6
		c-4-2.4-7.1-5.7-9.1-9.9c-1.1-2.2-1.8-4.6-2.1-7c-0.2-1.3-0.3-2.5-0.2-3.8c0.1-4.4,1.4-8.5,3.8-12.2c3-4.6,7.1-7.7,12.3-9.5
		C379.8,367,380.1,366.9,380.4,366.8z"/>
	<path class="st53" d="M393.8,396.4c-0.5,0-1.1,0-1.6,0c-0.2,0-0.2,0-0.2-0.2c0.6-1.5,1.1-3.1,1.7-4.6c1.1-3.1,2.2-6.1,3.4-9.2
		c0.1-0.2,0.2-0.3,0.4-0.3c1.1,0,2.1,0,3.2,0c0.2,0,0.2,0,0.1,0.2c-1.7,4.6-3.4,9.3-5.1,13.9c0,0.1-0.1,0.2-0.3,0.2
		C394.9,396.4,394.4,396.4,393.8,396.4z"/>
	<path class="st50" d="M592.9,731.1"/>
	<path class="st50" d="M481.2,696.4"/>
	<path class="st50" d="M201.1,708.3"/>
	<path class="st50" d="M252.6,574.4c-2.9-0.4-7.3-5.1-7.3-5.1"/>
	<path class="st54" d="M193.5,178.8"/>
	<path class="st55" d="M79.9,492.4c-1,0.2-1.5,1.3-1.5,2.1c0.3,0.9,1.3,1.4,2.2,1.2c1.4-0.2,2.7-0.5,4-0.7
		c10.7-1.9,21.4-3.4,32.2-4.7c10.7-1.3,21.4-2.4,32.1-3.6s21.5-2.6,32.1-4.3s21.1-3.9,31.4-6.6c8.4-2.2,16.7-4.7,25.1-6.7
		c2.2-0.5,1.3-3.9-0.9-3.4c-1.2,0.3-2.5,0.6-3.7,0.9c-8.4,2.1-16.6,4.6-25,6.7c-10.5,2.6-21.1,4.7-31.7,6.3
		c-10.6,1.7-21.2,2.9-31.8,4.1c-10.7,1.2-21.5,2.4-32.2,3.7C101.4,488.8,90.6,490.4,79.9,492.4L79.9,492.4z"/>
	<path class="st55" d="M257.2,448.3c0.9,0.4,1.9-0.3,2.3-1.4c0.3-0.9-0.3-1.8-1.2-2.1c-2.1-0.8-4.6-0.8-6.8-0.8
		c-3.9,0-7.7,0.5-11.3,1.9c-1.4,0.6-2.7,1.2-3.9,2.1c-1.2,1-2.2,2.1-3.1,3.4c-0.5,0.8-0.2,1.9,0.6,2.4c0.9,0.5,1.9,0.2,2.4-0.6
		c0.8-1.2,1.7-2.2,3-2.9c0.3-0.2,0.7-0.3,1-0.5c0.5-0.3,0.5-0.3,1-0.5c1-0.4,1.9-0.7,2.9-1c2.1-0.6,4.3-0.7,6.5-0.7
		C252.7,447.6,255.1,447.5,257.2,448.3L257.2,448.3z"/>
	<path class="st55" d="M231.4,387.2c-0.7-0.6-1.8-0.7-2.3,0.2c-0.6,0.7-0.7,1.9,0,2.5c4,3.6,7.9,7.7,11,12c2.9,3.9,5.4,8.2,7.5,12.6
		s3.7,9.1,5,13.9c0.8,2.7,1.5,5.3,2.6,7.9c1,2.4,2.5,4.6,3.7,6.9c0.2,0.5,0.4,0.9,0.6,1.5c0.1,0.2,0.1,0.4,0.2,0.6s0-0.4,0,0
		c0,0.1,0,0.2,0,0.3c0,0.4,0,0.9-0.1,1.3c0-0.4-0.1,0.3-0.1,0.4c-0.1,0.2-0.1,0.5-0.2,0.7c-0.2,0.5-0.3,0.9-0.5,1.4
		c-0.1,0.3,0,0.1,0,0c-0.1,0.2-0.1,0.3-0.2,0.4c-0.1,0.2-0.2,0.4-0.3,0.6s-0.3,0.4-0.4,0.6c-0.1,0-0.1,0.1-0.2,0.2c0.2-0.3,0,0,0,0
		c-0.1,0.1-0.3,0.3-0.4,0.4s-0.1,0.1-0.2,0.2c-0.2,0.2,0.3-0.2,0,0c-0.7,0.5-1.1,1.5-0.6,2.4c0.5,0.7,1.6,1.1,2.4,0.6
		c2-1.3,3.2-3.7,3.8-6c0.3-1.1,0.5-2.3,0.4-3.5c-0.1-1.5-0.7-2.8-1.3-4.1c-1.2-2.4-2.8-4.5-3.8-7c-1.1-2.6-1.7-5.4-2.5-8.1
		c-1.4-5-3.2-9.9-5.5-14.6C245.5,402.3,239.1,394,231.4,387.2L231.4,387.2z"/>
	<path class="st55" d="M258.1,449.3c0.2-0.3,0.3-0.5,0.3-0.8c0.1-0.2,0.1-0.3,0.1-0.5c0-0.3,0-0.6-0.2-0.9c-0.1-0.2-0.2-0.3-0.3-0.4
		c-0.2-0.2-0.4-0.3-0.6-0.4s-0.5-0.1-0.7-0.1c-0.3-0.1-0.5,0-0.7,0.1s-0.4,0.2-0.6,0.4c-0.3,0.2-0.6,0.6-0.8,0.9
		c-0.2,0.2-0.3,0.5-0.4,0.7c-0.1,0.3-0.2,0.6-0.2,0.9c0.1,0.2,0.1,0.3,0.1,0.5c0.1,0.3,0.3,0.6,0.5,0.8c0.2,0.1,0.3,0.2,0.4,0.3
		s0.4,0.2,0.6,0.2c0.2,0.1,0.5,0.1,0.7,0c0.2,0,0.4-0.2,0.6-0.3s0.4-0.3,0.5-0.5c0.2-0.3,0.3-0.6,0.5-0.8c-0.1,0.2-0.2,0.3-0.3,0.4
		C257.8,449.6,257.9,449.4,258.1,449.3L258.1,449.3z"/>
	<path class="st55" d="M255.6,432.6c-0.4-0.8-1.2-1.4-2.2-1.1c-0.8,0.2-1.6,1.2-1.2,2.1c1,2.4,2.4,4.5,4,6.5c1.4,1.8,3,3.8,4,6
		c0.4,0.8,1.6,1,2.4,0.6c0.8-0.5,1-1.5,0.6-2.4c-1.1-2.2-2.6-4.2-4.1-6.1c-0.2-0.3-0.6-0.7-0.9-1.2s-0.7-1-1-1.5s-0.6-1-0.9-1.5
		c-0.2-0.3-0.3-0.6-0.4-0.8C255.7,432.9,255.7,432.8,255.6,432.6L255.6,432.6z"/>
</g>
<g>
	<path class="st56" d="M428,134.1l9.7-82.7c0.1-0.8,0.8-1.3,1.6-1.2l133.3,15.6c0.8,0.1,1.3,0.8,1.2,1.6l-9.7,82.7
		c-0.1,0.8-0.8,1.3-1.6,1.2l-133.3-15.6C428.5,135.5,427.9,134.8,428,134.1z"/>
	<path class="st57" d="M375.2,3.3c0.1-0.7,0.8-1.4,1.7-1.3l178.7,21c0.9,0.1,1.4,0.9,1.3,1.6L555.4,38L373.7,16.7L375.2,3.3z"/>
	<path class="st57" d="M421,145.1c-1.9-0.2-3.3-2-3.1-3.9L429.5,42c0.2-1.9,2-3.3,3.9-3.1L553.7,53l3.3-28.3
		c0.1-0.8-0.5-1.6-1.3-1.7L376.9,2c-0.8-0.1-1.6,0.5-1.7,1.3L351,209.9c-0.1,0.8,0.5,1.6,1.3,1.7l178.7,21c0.8,0.1,1.6-0.5,1.7-1.3
		l8.4-72L421,145.1z"/>
	<path class="st22" d="M432,134.5l-4-0.5L432,134.5z"/>
	<path class="st57" d="M389.3,52.1l1.3-11.3c0.1-0.8,0.9-1.4,1.7-1.3l11.3,1.3c0.8,0.1,1.4,0.9,1.3,1.7l-1.3,11.3
		c-0.1,0.8-0.9,1.4-1.7,1.3l-11.3-1.3C389.8,53.7,389.2,53,389.3,52.1z"/>
	<path class="st57" d="M386.1,80.1l1.3-11.3c0.1-0.8,0.9-1.4,1.7-1.3l11.3,1.3c0.8,0.1,1.4,0.9,1.3,1.7l-1.3,11.3
		c-0.1,0.8-0.9,1.4-1.7,1.3l-11.3-1.3C386.6,81.7,386,80.9,386.1,80.1z"/>
	<path class="st57" d="M382.8,108.1l1.3-11.3c0.1-0.8,0.9-1.4,1.7-1.3l11.3,1.3c0.8,0.1,1.4,0.9,1.3,1.7l-1.3,11.3
		c-0.1,0.8-0.9,1.4-1.7,1.3l-11.3-1.3C383.3,109.7,382.7,108.9,382.8,108.1z"/>
	<path class="st57" d="M379.5,136l1.3-11.3c0.1-0.8,0.9-1.4,1.7-1.3l11.3,1.3c0.8,0.1,1.4,0.9,1.3,1.7l-1.3,11.3
		c-0.1,0.8-0.9,1.4-1.7,1.3l-11.3-1.3C380,137.6,379.4,136.9,379.5,136z"/>
	<path class="st58" d="M496.7,126.8l60.6,7.1c1.4-11.9-5.2-22.7-18.1-27c5-2.1,8.7-6.8,9.4-12.7c1-8.5-6.9-16.5-15.1-17.4
		c-8.2-1-17.7,4.9-18.7,13.5c-0.7,5.8,1.8,11.3,6.1,14.5C507.2,105.8,498.1,114.8,496.7,126.8z"/>
	<path class="st58" d="M442,120.4l46.7,5.5c1-8.6,0.3-16-9.7-19.1c3.8-1.5,4.5-5.9,5-10.1c1-8.7-7.1-13.4-13.4-14.2
		c-6.4-0.7-15.3,2-16.4,10.7c-0.5,4.2-0.5,8.7,2.8,11C446.6,104.8,443.1,111.8,442,120.4z"/>
</g>
<path class="st58" d="M417.9,141.2L429.5,42c0.2-1.9,2-3.3,3.9-3.1l147.4,17.3c1.9,0.2,3.3,2,3.1,3.9l-11.6,99.2
	c-0.2,1.9-2,3.3-3.9,3.1L421,145.1C419,144.9,417.6,143.1,417.9,141.2z"/>
<path class="st22" d="M432.6,134.4"/>
<path class="st22" d="M564,141.8"/>
<path class="st58" d="M428,134l9.6-82.1c0.2-1.5,1.8-2.5,3.5-2.4l130.1,15.4c1.7,0.2,2.9,1.6,2.7,3.1l-9.5,81.9
	c-0.2,1.5-1.8,2.5-3.5,2.4l-130.2-15.3C428.9,136.9,427.7,135.4,428,134z"/>
</svg>
